<?xml version="1.0" encoding="UTF-8"?><svg id="SPHERE" xmlns="http://www.w3.org/2000/svg" viewBox="0 0 341.1 56.78"><defs><style>.cls-1{fill:#f5b53f;}</style></defs><path class="cls-1" d="M141.96,2.28h-5.98l-29.05,50.44h7.62l7.91-13.73h33.03l7.91,13.73h7.62L141.96,2.28Zm-15.7,30.11l12.7-22.06,12.71,22.06h-25.42Z"/><polygon class="cls-1" points="185.28 8.9 185.28 25.14 229.32 25.14 229.32 31.75 185.28 31.75 185.28 52.72 178.68 52.72 178.68 2.28 232.46 2.28 232.46 8.9 185.28 8.9"/><path class="cls-1" d="M264.53,2.28h-5.98l-29.05,50.44h7.62l7.91-13.73h33.03l7.91,13.73h7.62L264.53,2.28Zm-15.7,30.11l12.7-22.06,12.71,22.06h-25.42Z"/><polygon class="cls-1" points="329.86 22.62 329.86 30.16 299.5 48.86 299.5 40.42 322.71 26.53 299.5 12.1 299.5 4.23 329.86 22.62"/><polygon class="cls-1" points="38.03 12.65 14.82 26.55 38.03 40.97 38.03 48.85 7.67 30.45 7.67 22.92 38.03 4.22 38.03 12.65"/><path class="cls-1" d="M99.56,45.33s-.07,.08-.1,.11c.04-.04,.07-.08,.09-.12h.02Z"/><path class="cls-1" d="M82.68,25l-19.94-1.71c-7.59-.66-10.69-2.28-10.69-5.6,0-6.95,14.84-9.2,19.85-9.2,6.57,0,15.47,.99,20.73,3.75l2,1.05c.05,.03,.11-.01,.11-.07V6.26l-.84-.36c-7.5-3.16-17.02-3.63-22.03-3.63-8.95,0-26.42,3.71-26.42,15.17,0,10.62,12.09,11.66,17.9,12.16l20.38,1.74c10.12,.88,11.08,3.39,11.41,6.2,.09,.69,.05,1.34-.07,1.95l-.04,.17c-2.29,7.27-16.46,8.49-22.9,8.65-8.37,.21-17.01-.7-23.42-4.75l-2.13-1.35c-.05-.03-.12,0-.12,.07l-.07,7.21,.72,.39c7.25,3.94,17.49,5.03,26.18,4.81,8.43-.21,26.01-1.94,28.23-14.44,.03-.15,.06-.31,.09-.47,.04-.28,.08-.56,.09-.85,.04-.42,.06-.85,.06-1.29,0-9.69-9.64-11.82-19.07-12.63Zm16.78,21.74s.07-.08,.09-.13h.02s-.07,.09-.1,.13Z"/><path class="cls-1" d="M99.56,45.33s-.07,.08-.1,.11c.04-.04,.07-.08,.09-.12h.02Z"/></svg>