<?xml version="1.0" standalone="no"?>
<!DOCTYPE svg PUBLIC "-//W3C//DTD SVG 20010904//EN"
 "http://www.w3.org/TR/2001/REC-SVG-20010904/DTD/svg10.dtd">
<svg version="1.0" xmlns="http://www.w3.org/2000/svg"
 width="700.000000pt" height="700.000000pt" viewBox="0 0 700.000000 700.000000"
 preserveAspectRatio="xMidYMid meet">
<metadata>
Created by potrace 1.14, written by Peter Selinger 2001-2017
</metadata>
<g transform="translate(0.000000,700.000000) scale(0.100000,-0.100000)"
fill="#000000" stroke="none">
<path d="M6305 6222 c-11 -2 -67 -23 -125 -47 -152 -62 -487 -182 -910 -326
-174 -60 -239 -79 -420 -125 -52 -14 -147 -39 -210 -56 -63 -17 -140 -37 -170
-44 -143 -32 -660 -178 -757 -213 -166 -59 -398 -166 -495 -227 -21 -13 -38
-22 -38 -20 0 2 16 75 36 163 34 147 37 170 37 323 0 147 -2 170 -21 210 -37
78 -78 113 -159 134 -103 27 -179 -1 -270 -98 -78 -84 -98 -108 -165 -196 -32
-41 -61 -79 -66 -85 -4 -5 -45 -64 -91 -130 -72 -102 -259 -356 -298 -405 -16
-19 -113 -151 -133 -180 -16 -23 -85 -118 -98 -135 -21 -28 -173 -258 -205
-310 -62 -102 -73 -173 -81 -505 -2 -69 -4 -137 -5 -151 l-1 -26 -99 33 c-126
44 -160 49 -306 48 -175 0 -317 -44 -463 -140 -113 -75 -237 -223 -300 -359
-20 -43 -36 -58 -110 -105 -118 -76 -208 -168 -257 -265 l-40 -78 3 -141 c3
-152 6 -172 25 -173 40 -1 165 -15 182 -20 11 -3 115 -6 231 -5 258 0 335 -14
466 -85 48 -26 82 -65 238 -273 311 -414 610 -688 905 -829 39 -18 79 -37 90
-41 11 -4 31 -12 45 -18 98 -40 247 -76 366 -89 124 -13 478 -6 572 12 9 1 49
6 87 9 39 4 86 9 105 11 98 11 141 15 205 20 39 3 90 7 115 10 25 2 110 7 190
10 296 12 397 19 550 36 155 16 197 13 295 -27 98 -40 186 -53 249 -36 30 9
45 8 66 -3 84 -44 279 -70 342 -46 22 8 42 4 110 -20 46 -17 164 -51 263 -75
222 -54 227 -56 405 -114 243 -80 290 -91 420 -95 163 -6 249 20 312 95 88
102 74 242 -35 351 -67 68 -173 117 -452 212 -137 47 -387 135 -555 197 -168
61 -361 132 -430 156 -69 25 -147 53 -175 64 -27 10 -88 32 -135 49 -47 16
-146 52 -220 79 -74 28 -229 82 -345 121 -115 40 -255 88 -310 108 -114 41
-329 138 -332 150 -2 4 30 21 70 37 242 96 573 285 762 434 297 235 382 459
243 643 l-38 50 40 59 c22 32 40 63 40 69 0 5 4 11 8 13 14 6 100 166 117 219
23 69 16 152 -18 210 -19 33 -23 47 -14 55 7 6 53 55 102 109 50 55 116 127
147 160 31 34 67 72 78 85 110 128 394 419 480 490 85 72 151 134 269 253 317
322 374 408 374 572 0 86 -17 131 -71 188 -48 51 -150 83 -217 69z"/>
</g>
</svg>
