<?xml version="1.0" encoding="UTF-8"?><svg id="SPHERE" xmlns="http://www.w3.org/2000/svg" viewBox="0 0 462.05 353.11"><defs><style>.cls-1{fill:#00ad69;}.cls-2{fill:#5975b8;}</style></defs><g><g><g id="POLYLINE"><path class="cls-2" d="M264.15,218.02l-1.87-.07-1.78-.2-1.65-.3-1.6-.41-1.55-.52-1.5-.62-1.45-.73-1.4-.84-1.34-.94-1.28-1.04-1.22-1.14-1.16-1.25-.86-1.04-.93-1.26-.87-1.33-.81-1.39-.75-1.46-.69-1.52-.63-1.58-.57-1.64-.51-1.7-.45-1.76-.38-1.81-.32-1.86-.26-1.91-.11-.97-.16-1.98-.1-2.03-.03-2.07,.03-2.11,.1-2.14,.16-2.16,.23-2.18,.29-2.2,.35-2.22,.42-2.23,.48-2.24,.54-2.25,.6-2.26,.66-2.26,.72-2.26,.78-2.27,.83-2.26,.89-2.26,.95-2.25,1.52-3.32,1.63-3.27,1.73-3.2,1.83-3.13,1.93-3.05,1-1.49,2.07-2.91,1.06-1.42,1.09-1.39,1.11-1.37,1.21-1.44,1.23-1.4,1.25-1.36,1.26-1.32,1.28-1.28,1.29-1.24,1.3-1.2,1.31-1.15,1.33-1.11,1.33-1.06,1.34-1.02,1.35-.97,1.36-.92,1.36-.87,1.37-.82,1.37-.77,1.37-.72,1.37-.67,1.36-.61,1.36-.56,2.7-.95,2-.57,1.98-.44,1.96-.31,1.93-.19,1.9-.06,1.87,.07,1.78,.2,1.65,.3,1.6,.41,1.55,.52,1.5,.62,1.45,.73,1.4,.84,1.34,.94,1.28,1.04,1.22,1.14,1.16,1.25,.86,1.04,.93,1.26,.87,1.33,.81,1.39,.75,1.46,.69,1.52,.63,1.58,.57,1.64,.51,1.7,.45,1.76,.38,1.81,.32,1.86,.26,1.91,.11,.98,.16,1.98,.1,2.03,.03,2.07-.03,2.11-.1,2.14-.16,2.16-.23,2.18-.29,2.2-.35,2.22-.42,2.23-.48,2.24-.54,2.25-.6,2.26-.66,2.26-.72,2.27-.78,2.27-.83,2.26-.89,2.26-.95,2.25-1.52,3.32-1.63,3.27-1.73,3.2-1.83,3.13-1.93,3.05-1,1.49-1.02,1.47-1.04,1.44-1.06,1.42-1.08,1.39-1.11,1.37-1.21,1.44-1.23,1.4-1.25,1.36-1.26,1.32-1.28,1.28-1.29,1.24-1.3,1.2-1.31,1.15-1.33,1.11-1.33,1.06-1.34,1.02-1.35,.97-1.36,.92-1.36,.87-1.37,.82-1.37,.77-1.37,.72-1.37,.67-1.37,.61-1.36,.56-2.03,.73-2.01,.61-1.99,.48-1.97,.36-1.94,.23-1.91,.1h-.63Zm-3.03-.68l1.81,.16,1.22,.03,1.87-.06,1.9-.18,1.93-.31,1.95-.43,1.98-.56,1.33-.44,1.34-.5,1.34-.55,1.35-.61,1.36-.66,1.36-.72,1.36-.77,1.36-.82,1.35-.87,1.35-.92,1.34-.96,1.33-1.01,1.33-1.06,1.32-1.1,1.3-1.15,1.29-1.19,1.28-1.23,1.27-1.27,1.25-1.32,1.24-1.36,1.23-1.4,1.21-1.44,1.1-1.36,1.08-1.39,2.1-2.85,2.01-2.94,1.92-3.03,1.83-3.11,1.72-3.18,1.62-3.25,1.51-3.31,.94-2.24,.89-2.25,.83-2.25,.77-2.25,.71-2.25,.65-2.25,.6-2.25,.53-2.24,.47-2.23,.41-2.22,.35-2.2,.29-2.19,.22-2.17,.16-2.15,.1-2.12,.03-2.09-.03-2.06-.1-2.01-.27-2.93-.26-1.89-.32-1.84-.38-1.79-.44-1.74-.5-1.68-.56-1.62-.62-1.56-.68-1.5-.74-1.44-.8-1.37-.85-1.3-.91-1.23-1.21-1.44-1.16-1.19-1.22-1.09-1.27-.99-1.33-.89-1.38-.78-1.44-.68-1.49-.58-1.54-.47-1.58-.36-1.63-.26-1.81-.16-1.22-.03-1.87,.06-1.9,.18-1.93,.31-1.95,.43-1.98,.56-1.33,.44-1.34,.5-1.34,.55-1.35,.61-1.36,.66-1.36,.72-1.36,.77-1.36,.82-1.35,.87-1.35,.92-1.34,.96-1.33,1.01-1.32,1.06-1.32,1.1-1.31,1.15-1.29,1.19-1.28,1.23-1.27,1.28-1.26,1.32-1.24,1.36-1.22,1.4-1.21,1.44-1.1,1.36-1.08,1.39-2.1,2.85-1.02,1.46-.99,1.48-1.92,3.03-1.82,3.11-1.73,3.19-1.62,3.25-1.51,3.31-.95,2.24-.89,2.25-.83,2.25-.77,2.25-.71,2.25-.66,2.25-.6,2.25-.54,2.24-.47,2.23-.41,2.22-.35,2.2-.29,2.19-.22,2.17-.16,2.15-.1,2.12-.03,2.09,.03,2.06,.1,2.01,.27,2.93,.26,1.9,.32,1.84,.38,1.79,.44,1.74,.5,1.68,.56,1.62,.62,1.56,.68,1.5,.74,1.44,.8,1.37,.85,1.3,.91,1.23,1.21,1.44,1.16,1.19,1.21,1.09,1.27,.99,1.33,.89,1.38,.78,1.44,.68,1.49,.58,1.54,.47,1.58,.36,1.63,.26Z"/></g><g id="POLYLINE-2"><path class="cls-2" d="M248.73,226.39l-2.14-.08-1.93-.2-1.89-.31-1.84-.43-1.79-.54-1.74-.66-1.69-.77-1.63-.88-1.58-.99-1.52-1.1-1.45-1.21-1.36-1.29-1.23-1.32-1.17-1.41-1.11-1.49-.7-1.04-.67-1.08-1.03-1.82-.73-1.44-1-2.25-.9-2.35-.27-.81-.51-1.65-.47-1.69-.42-1.73-.37-1.77-.32-1.81-.27-1.85-.22-1.89-.18-1.92-.12-1.96-.08-1.99-.03-2.02,.03-2.05,.08-2.07,.12-2.09,.18-2.11,.22-2.13,.27-2.14,.32-2.16,.37-2.17,.42-2.18,.46-2.19,.51-2.2,.56-2.21,.61-2.21,.65-2.22,.7-2.22,.75-2.22,1.31-3.61,1.43-3.59,1.54-3.56,1.65-3.52,1.88-3.73,1.99-3.66,2.1-3.58,2.2-3.49,2.29-3.39,2.39-3.29,2.47-3.18,2.55-3.07,1.42-1.61,1.43-1.57,1.45-1.53,1.47-1.48,1.48-1.44,1.5-1.39,1.51-1.35,1.53-1.3,1.53-1.25,1.54-1.2,1.55-1.15,1.56-1.1,1.56-1.05,1.57-.99,1.57-.94,1.57-.88,1.57-.83,1.57-.77,1.57-.71,1.57-.66,1.56-.6,1.55-.54,1.55-.48,2.31-.61,2.28-.47,2.25-.34,2.22-.2,2.18-.06,2.14,.08,1.93,.2,1.89,.31,1.84,.43,1.79,.54,1.74,.65,1.69,.77,1.63,.88,1.58,.99,1.52,1.1,1.46,1.21,1.36,1.29,1.23,1.32,1.17,1.41,1.11,1.49,.7,1.04,.67,1.08,1.03,1.82,1.07,2.17,.66,1.51,.9,2.35,.27,.81,.51,1.64,.47,1.69,.42,1.73,.37,1.77,.32,1.81,.27,1.85,.22,1.89,.17,1.92,.12,1.96,.08,1.99,.02,2.02-.02,2.05-.08,2.07-.12,2.09-.17,2.11-.22,2.13-.27,2.14-.32,2.16-.37,2.17-.42,2.18-.47,2.19-.51,2.2-.56,2.21-.61,2.21-.65,2.22-.7,2.22-.75,2.22-1.31,3.61-1.43,3.59-1.54,3.56-1.65,3.52-1.88,3.73-1.99,3.66-2.1,3.58-2.2,3.49-2.29,3.39-2.39,3.29-2.47,3.18-2.55,3.07-1.42,1.61-1.43,1.57-1.45,1.53-1.47,1.48-1.48,1.44-1.5,1.39-1.51,1.35-1.52,1.3-1.54,1.25-1.54,1.2-1.55,1.15-1.56,1.1-1.56,1.05-1.57,.99-1.57,.94-1.58,.89-1.57,.83-1.57,.77-1.57,.71-1.56,.66-1.56,.6-1.55,.54-1.55,.48-2.31,.61-2.28,.47-2.25,.33-2.22,.2-2.18,.06Zm44.11-145.97l-2.15,.06-2.19,.2-2.22,.33-2.25,.47-.76,.19-1.52,.42-1.53,.48-1.54,.54-1.54,.59-1.55,.65-1.55,.71-1.56,.77-1.56,.82-1.56,.88-1.56,.93-1.56,.99-1.55,1.04-1.55,1.09-1.54,1.15-1.54,1.2-1.53,1.25-1.52,1.29-1.5,1.34-1.49,1.39-1.48,1.43-1.46,1.48-1.44,1.52-1.43,1.56-1.41,1.6-2.54,3.05-2.46,3.17-2.38,3.28-2.29,3.38-2.19,3.48-2.09,3.56-1.99,3.64-1.88,3.71-1.64,3.51-1.53,3.55-1.42,3.58-1.31,3.6-.74,2.21-.7,2.21-.65,2.21-.61,2.21-.56,2.2-.51,2.19-.46,2.18-.42,2.17-.37,2.16-.32,2.15-.27,2.13-.22,2.12-.17,2.1-.12,2.08-.08,2.06-.03,2.04,.03,2.01,.08,1.98,.12,1.94,.17,1.91,.22,1.87,.27,1.83,.32,1.8,.37,1.76,.42,1.72,.46,1.67,.78,2.43,.89,2.33,.99,2.22,.72,1.42,.38,.69,.64,1.1,1.36,2.09,1.09,1.47,1.15,1.38,1.21,1.3,1.34,1.27,1.43,1.19,1.49,1.08,1.55,.97,1.6,.87,1.66,.75,1.71,.64,1.76,.53,1.81,.42,1.86,.31,1.9,.19,2.11,.08,2.15-.06,2.19-.2,2.22-.33,2.25-.47,.76-.19,1.52-.42,1.53-.48,1.54-.54,1.54-.59,1.55-.65,1.56-.71,1.56-.77,1.56-.82,1.56-.88,1.56-.93,1.56-.99,1.55-1.04,1.55-1.09,1.54-1.14,1.54-1.2,1.53-1.25,1.52-1.3,1.5-1.34,1.49-1.39,1.48-1.43,1.46-1.48,1.45-1.52,1.43-1.56,1.41-1.6,2.54-3.05,2.46-3.17,2.38-3.28,2.29-3.38,2.19-3.48,2.09-3.56,1.99-3.64,1.88-3.71,1.64-3.51,1.53-3.55,1.42-3.58,1.31-3.6,.74-2.21,.7-2.21,.65-2.21,.6-2.2,.56-2.2,.51-2.19,.46-2.18,.42-2.17,.37-2.16,.32-2.15,.27-2.13,.22-2.12,.17-2.1,.12-2.08,.08-2.06,.02-2.04-.02-2.01-.08-1.98-.12-1.94-.17-1.91-.22-1.87-.27-1.83-.32-1.8-.37-1.76-.41-1.72-.46-1.67-.78-2.43-.89-2.33-.99-2.22-.72-1.42-1.01-1.79-1.36-2.09-1.09-1.47-1.15-1.39-1.21-1.3-1.33-1.27-1.43-1.19-1.49-1.08-1.55-.97-1.6-.87-1.66-.75-1.71-.64-1.76-.53-1.81-.42-1.86-.31-1.9-.19-2.11-.08Z"/></g><g id="POLYLINE-3"><path class="cls-2" d="M234.68,229.98l-1.87-.06-1.84-.15-1.81-.25-1.64-.31-1.47-.35-1.44-.42-1.42-.48-1.45-.57-1.47-.67-1.43-.75-1.39-.82-1.35-.89-1.31-.97-1.26-1.04-1.22-1.11-1.17-1.18-1.13-1.25-1.08-1.31-1.04-1.38-.99-1.44-.94-1.51-.89-1.57-.84-1.64-.4-.84-.66-1.49-.62-1.53-.58-1.57-.53-1.61-.49-1.65-.45-1.69-.41-1.72-.37-1.76-.32-1.79-.28-1.82-.24-1.86-.2-1.89-.15-1.92-.11-1.95-.07-1.97-.02-2,.02-2.03,.07-2.05,.11-2.06,.15-2.08,.19-2.1,.24-2.11,.28-2.13,.32-2.14,.37-2.15,.41-2.16,.45-2.17,.49-2.18,1.11-4.38,1.27-4.4,.81-2.54,.86-2.53,.91-2.53,.96-2.51,1-2.5,1.05-2.49,1.1-2.47,1.14-2.45,1.19-2.43,1.23-2.41,1.28-2.39,1.32-2.36,1.36-2.34,1.4-2.31,1.44-2.28,1.48-2.25,2.81-4.03,1.45-1.96,1.48-1.92,1.79-2.24,1.82-2.18,1.85-2.12,1.88-2.06,1.91-2,1.93-1.93,1.95-1.86,1.98-1.79,2-1.72,2.01-1.65,2.02-1.57,2.04-1.49,2.04-1.41,2.05-1.33,2.06-1.25,2.06-1.17,2.06-1.08,3.09-1.46,2.05-.86,2.04-.77,2.03-.68,2.02-.59,2.01-.5,1.99-.41,1.97-.31,1.95-.22,1.93-.13,1.9-.03,1.87,.06,1.84,.15,1.81,.25,1.64,.31,1.47,.35,1.44,.42,1.42,.48,1.45,.57,1.47,.67,1.43,.75,1.39,.82,1.35,.9,1.31,.96,1.26,1.04,1.22,1.11,1.17,1.18,1.13,1.25,1.08,1.31,1.04,1.38,.99,1.44,.94,1.51,.89,1.57,.84,1.64,.4,.84,.66,1.49,.62,1.53,.58,1.57,.53,1.61,.49,1.65,.45,1.69,.41,1.72,.37,1.76,.32,1.79,.28,1.83,.24,1.86,.2,1.89,.15,1.92,.11,1.95,.07,1.98,.02,2-.02,2.03-.07,2.05-.11,2.06-.15,2.08-.2,2.1-.24,2.11-.28,2.13-.32,2.14-.37,2.15-.41,2.16-.45,2.17-.49,2.18-1.11,4.38-1.27,4.4-.81,2.54-.86,2.53-.91,2.53-.96,2.51-1,2.5-1.05,2.49-1.1,2.47-1.15,2.45-1.19,2.43-1.23,2.41-1.28,2.39-1.32,2.36-1.36,2.34-1.4,2.31-1.44,2.28-1.48,2.25-2.81,4.03-1.45,1.96-1.48,1.93-1.79,2.24-1.82,2.18-1.85,2.12-1.88,2.06-1.91,2-1.93,1.93-1.95,1.86-1.98,1.79-2,1.72-2.01,1.65-2.02,1.57-2.04,1.49-2.04,1.41-2.05,1.33-2.06,1.25-2.06,1.17-2.06,1.08-3.09,1.46-2.05,.86-2.04,.77-2.03,.68-2.02,.59-2.01,.5-1.99,.41-1.97,.31-1.95,.22-1.93,.13-1.9,.03Zm-6.33-1.11l1.77,.29,1.8,.2,1.83,.1,.93,.02,1.88-.03,1.9-.13,1.93-.22,1.95-.31,1.97-.4,1.99-.5,2-.58,2.01-.68,2.03-.77,2.04-.85,1.02-.46,2.05-.99,2.05-1.07,2.05-1.16,2.05-1.24,2.04-1.32,2.03-1.4,2.03-1.48,2.01-1.56,2-1.64,1.99-1.71,1.97-1.79,1.95-1.85,1.92-1.92,1.9-1.99,1.87-2.05,1.84-2.11,1.81-2.17,1.78-2.23,1.47-1.92,1.44-1.95,2.8-4.01,1.48-2.24,1.44-2.27,1.4-2.3,1.36-2.33,1.32-2.36,1.27-2.38,1.23-2.4,1.19-2.42,1.14-2.44,1.1-2.46,1.05-2.48,1-2.49,.96-2.5,.9-2.52,.86-2.52,.8-2.53,1.27-4.39,1.1-4.36,.49-2.17,.45-2.16,.41-2.15,.36-2.14,.32-2.13,.28-2.12,.24-2.1,.19-2.09,.15-2.07,.11-2.05,.07-2.04,.02-2.02-.02-1.99-.07-1.97-.11-1.94-.15-1.91-.2-1.88-.24-1.84-.28-1.81-.32-1.78-.36-1.74-.41-1.71-.45-1.67-.49-1.63-.53-1.6-.57-1.56-.61-1.52-1.05-2.31-.83-1.62-.88-1.56-.92-1.49-.97-1.43-1.02-1.36-1.07-1.29-1.11-1.23-1.16-1.16-1.2-1.09-1.24-1.02-1.29-.95-1.33-.88-1.37-.81-1.41-.74-1.45-.66-1.42-.57-1.39-.48-1.42-.41-1.45-.35-1.61-.31-1.79-.24-1.82-.15-1.85-.06-1.88,.03-1.9,.13-1.93,.22-1.95,.31-1.97,.4-1.99,.5-2,.59-2.01,.68-2.03,.77-2.04,.85-1.02,.46-2.05,.99-2.05,1.07-2.05,1.16-2.04,1.24-2.04,1.32-2.03,1.4-2.02,1.48-2.01,1.56-2,1.64-1.99,1.71-1.97,1.79-1.95,1.85-1.92,1.92-1.9,1.99-1.87,2.05-1.84,2.11-1.81,2.17-1.78,2.23-1.47,1.92-1.44,1.95-2.8,4.01-1.48,2.24-1.44,2.27-1.4,2.3-1.36,2.33-1.31,2.36-1.27,2.38-1.23,2.4-1.19,2.42-1.14,2.44-1.1,2.46-1.05,2.48-1,2.49-.95,2.5-.9,2.52-.86,2.52-.8,2.53-1.27,4.38-1.1,4.36-.49,2.17-.45,2.16-.41,2.15-.37,2.14-.32,2.13-.28,2.12-.24,2.1-.19,2.09-.15,2.07-.11,2.05-.07,2.04-.02,2.02,.02,1.99,.07,1.96,.11,1.94,.15,1.91,.19,1.88,.24,1.84,.28,1.81,.32,1.78,.36,1.74,.4,1.71,.45,1.67,.49,1.63,.53,1.6,.57,1.56,.61,1.52,1.04,2.31,.83,1.62,.88,1.56,.92,1.49,.97,1.43,1.02,1.36,1.07,1.29,1.11,1.23,1.16,1.16,1.2,1.09,1.24,1.02,1.29,.95,1.33,.88,1.37,.81,1.41,.74,1.45,.66,1.42,.57,1.39,.48,1.42,.41,1.45,.35,.73,.15Z"/></g><g id="POLYLINE-4"><path class="cls-2" d="M222.29,230.31l-2.33-.05-2.29-.18-2.24-.32-2.19-.45-2.14-.59-1.39-.46-1.37-.52-1.34-.58-1.96-.98-1.74-1.01-1.61-1.07-1.56-1.17-1.5-1.26-1.44-1.36-.93-.96-1.25-1.41-1.2-1.48-1.14-1.56-1.08-1.63-1.02-1.71-.96-1.78-.9-1.85-.84-1.92-.61-1.53-.57-1.57-.53-1.6-.5-1.64-.46-1.67-.42-1.71-.38-1.74-.34-1.77-.3-1.8-.26-1.83-.22-1.86-.18-1.89-.14-1.92-.1-1.94-.06-1.97-.02-1.99,.02-2.02,.06-2.03,.1-2.05,.14-2.07,.18-2.08,.22-2.1,.26-2.11,.3-2.12,.72-4.28,.87-4.32,1.03-4.35,1.18-4.38,.84-2.83,.9-2.82,.96-2.82,1.02-2.81,1.08-2.8,1.14-2.79,1.19-2.77,1.25-2.76,1.87-3.9,1.97-3.85,2.08-3.79,2.17-3.72,2.58-4.14,2.69-4.03,2.8-3.91,2.9-3.79,2.99-3.65,3.07-3.5,1.56-1.69,1.58-1.65,1.59-1.61,1.61-1.56,2.97-2.73,1.5-1.31,1.51-1.27,1.81-1.46,1.81-1.4,1.83-1.34,1.83-1.29,1.84-1.23,1.84-1.16,1.85-1.1,1.85-1.04,1.85-.98,1.85-.91,1.84-.85,1.84-.78,1.83-.71,1.83-.64,1.82-.58,1.81-.51,1.51-.37,1.5-.32,1.49-.28,2.3-.33,2.41-.22,2.37-.09,2.33,.05,2.29,.18,1.5,.2,1.48,.26,2.17,.5,1.42,.4,1.39,.46,1.37,.52,1.34,.58,1.31,.64,1.84,1.02,1.63,1.04,1.58,1.13,1.52,1.23,1.46,1.32,1.4,1.42,1.25,1.41,1.2,1.48,1.14,1.56,1.08,1.63,1.02,1.71,.96,1.78,.91,1.85,.84,1.92,.61,1.53,.57,1.57,.53,1.6,.5,1.64,.46,1.67,.42,1.71,.38,1.74,.34,1.77,.3,1.8,.26,1.83,.22,1.86,.18,1.89,.14,1.92,.1,1.94,.06,1.97,.02,1.99-.02,2.02-.06,2.04-.1,2.05-.14,2.07-.18,2.08-.22,2.1-.26,2.11-.3,2.12-.72,4.28-.87,4.32-1.03,4.35-1.18,4.38-.84,2.83-.9,2.82-.96,2.82-1.02,2.81-1.08,2.8-1.13,2.79-1.19,2.78-1.25,2.76-1.87,3.9-1.97,3.84-2.08,3.79-2.17,3.72-2.58,4.14-2.69,4.03-2.8,3.91-2.9,3.79-2.99,3.65-3.07,3.49-1.56,1.69-1.58,1.65-1.59,1.61-1.61,1.56-2.97,2.73-1.5,1.31-1.51,1.27-1.81,1.46-1.82,1.4-1.82,1.34-1.83,1.29-1.84,1.23-1.84,1.16-1.85,1.1-1.85,1.04-1.85,.97-1.85,.91-1.84,.84-1.84,.78-1.83,.71-1.83,.64-1.82,.58-1.81,.51-1.51,.38-1.5,.32-1.5,.28-2.29,.33-2.41,.22-2.37,.09Zm52.27-176.22l-2.34,.08-2.38,.22-.8,.1-1.47,.22-1.48,.27-1.49,.32-1.5,.37-1.79,.5-1.8,.57-1.81,.64-1.82,.71-1.83,.77-1.83,.84-1.83,.9-1.84,.97-1.84,1.03-1.83,1.1-1.83,1.16-1.83,1.22-1.82,1.28-1.82,1.34-1.81,1.4-1.8,1.45-1.5,1.27-1.49,1.3-2.96,2.72-1.6,1.56-1.59,1.6-1.57,1.64-1.55,1.68-3.06,3.48-2.98,3.63-2.89,3.77-2.79,3.9-2.68,4.02-2.58,4.13-2.17,3.71-2.07,3.77-1.97,3.83-1.86,3.89-1.24,2.75-1.19,2.77-1.13,2.78-1.07,2.79-1.02,2.8-.96,2.81-.9,2.81-.84,2.82-1.18,4.36-1.02,4.34-.87,4.31-.71,4.27-.3,2.11-.26,2.1-.22,2.09-.18,2.08-.14,2.06-.1,2.04-.06,2.02-.02,2.01,.02,1.98,.06,1.96,.1,1.93,.14,1.91,.18,1.88,.22,1.85,.26,1.82,.3,1.79,.34,1.76,.38,1.73,.42,1.69,.45,1.66,.49,1.62,.53,1.59,.57,1.55,1.01,2.47,.87,1.87,.92,1.79,.98,1.72,1.04,1.65,1.1,1.58,1.15,1.5,1.21,1.43,1.54,1.63,1.42,1.34,1.48,1.24,1.53,1.15,1.59,1.05,1.72,1,1.93,.96,1.99,.84,1.36,.49,1.39,.43,1.41,.37,2.16,.44,2.21,.31,2.26,.18,2.3,.05,2.34-.08,2.38-.22,.8-.1,1.47-.23,1.48-.27,1.49-.32,1.5-.37,1.79-.5,1.8-.57,1.81-.64,1.82-.71,1.83-.77,1.83-.84,1.83-.9,1.84-.97,1.84-1.03,1.83-1.1,1.83-1.16,1.83-1.22,1.82-1.28,1.81-1.34,1.81-1.4,1.8-1.45,1.5-1.27,1.49-1.3,2.96-2.72,1.6-1.56,1.59-1.6,1.57-1.64,1.55-1.68,3.06-3.48,2.97-3.63,2.89-3.77,2.79-3.9,2.68-4.02,2.58-4.13,2.17-3.71,2.07-3.77,1.97-3.83,1.87-3.89,1.24-2.75,1.19-2.77,1.13-2.78,1.07-2.79,1.02-2.8,.96-2.81,.9-2.81,.84-2.82,1.18-4.36,1.02-4.34,.87-4.31,.71-4.27,.3-2.11,.26-2.1,.22-2.09,.18-2.08,.14-2.06,.1-2.04,.06-2.02,.02-2.01-.02-1.98-.06-1.96-.1-1.93-.14-1.91-.18-1.88-.22-1.85-.26-1.82-.3-1.79-.34-1.76-.38-1.73-.42-1.69-.45-1.66-.49-1.62-.53-1.59-.57-1.55-1.02-2.47-.87-1.87-.92-1.79-.98-1.72-1.04-1.65-1.1-1.58-1.15-1.5-1.21-1.43-1.54-1.63-1.42-1.34-1.48-1.24-1.53-1.15-1.59-1.05-1.72-1-1.28-.66-1.31-.6-1.33-.54-1.36-.49-2.09-.62-2.14-.49-2.2-.36-2.24-.23-2.29-.09h-.77Z"/></g><g id="POLYLINE-5"><path class="cls-2" d="M209.82,228l-1.65-.03-1.63-.1-1.61-.16-1.59-.23-1.56-.29-1.54-.35-1.51-.42-1.48-.48-1.46-.55-1.42-.61-1.4-.67-1.36-.74-1.33-.8-1.29-.85-1.24-.9-1.2-.95-1.17-1.01-1.13-1.06-1.09-1.12-1.06-1.17-1.02-1.22-1.46-1.93-.92-1.35-1.31-2.12-.42-.73-.8-1.5-.76-1.55-.72-1.6-.68-1.64-.59-1.55-.55-1.58-.51-1.62-.48-1.65-.44-1.68-.4-1.72-.36-1.75-.33-1.78-.29-1.81-.25-1.83-.21-1.86-.17-1.89-.13-1.92-.1-1.94-.06-1.97-.02-1.99,.02-2.01,.06-2.03,.1-2.05,.14-2.06,.17-2.08,.21-2.09,.54-4.22,.69-4.27,.84-4.31,.99-4.34,1.13-4.36,1.4-4.76,1.56-4.74,1.72-4.72,1.88-4.69,2.03-4.65,2.18-4.6,2.32-4.53,2.46-4.46,2.65-4.47,2.77-4.36,2.89-4.24,3-4.11,3.11-3.97,3.2-3.81,1.63-1.84,1.65-1.8,1.67-1.76,1.69-1.71,1.63-1.6,1.65-1.55,1.66-1.51,1.67-1.46,1.68-1.41,1.69-1.37,1.7-1.32,1.71-1.27,2.46-1.73,2.47-1.62,2.48-1.52,2.48-1.41,2.48-1.3,2.48-1.18,2.47-1.07,2.46-.95,1.71-.6,1.71-.54,1.7-.48,1.69-.42,1.68-.36,1.67-.31,1.65-.25,2.49-.26,1.69-.1,1.67-.03,1.65,.03,1.63,.1,1.61,.16,1.59,.23,1.56,.29,1.54,.36,1.51,.42,1.48,.48,1.46,.55,1.43,.61,1.39,.67,1.36,.74,1.33,.8,1.29,.85,1.24,.9,1.2,.95,1.17,1.01,1.13,1.06,1.09,1.12,1.06,1.17,1.51,1.85,1.43,1.97,1.34,2.09,.84,1.45,.8,1.5,.76,1.55,.72,1.6,.68,1.64,.59,1.55,.55,1.58,.51,1.62,.48,1.65,.44,1.68,.4,1.71,.36,1.75,.33,1.78,.29,1.81,.25,1.83,.21,1.86,.17,1.89,.13,1.92,.1,1.94,.06,1.97,.02,1.99-.02,2.01-.06,2.03-.1,2.05-.14,2.06-.17,2.08-.21,2.09-.54,4.22-.69,4.27-.84,4.31-.99,4.34-1.13,4.36-1.4,4.76-1.56,4.74-1.72,4.72-1.88,4.69-2.03,4.65-2.18,4.6-2.32,4.53-2.46,4.46-2.65,4.47-2.77,4.36-2.89,4.24-3,4.11-3.11,3.97-3.2,3.81-1.63,1.84-1.65,1.8-1.67,1.76-1.69,1.71-1.63,1.6-1.65,1.55-1.66,1.51-1.67,1.46-1.68,1.41-1.69,1.37-1.7,1.32-1.71,1.27-2.46,1.73-2.47,1.62-2.48,1.52-2.48,1.41-2.48,1.3-2.48,1.18-2.47,1.07-2.47,.95-1.71,.59-1.71,.54-1.7,.48-1.69,.42-1.68,.36-1.67,.31-1.65,.25-2.49,.26-1.69,.1-1.67,.03Zm54.84-182.82l-1.65,.03-1.67,.1-.84,.07-1.62,.19-1.64,.24-1.65,.3-1.66,.36-1.67,.42-1.68,.48-1.69,.53-1.7,.59-2.44,.95-2.45,1.06-2.46,1.17-2.46,1.29-2.47,1.4-2.46,1.51-2.46,1.61-2.45,1.72-1.7,1.26-1.69,1.31-1.69,1.36-1.68,1.41-1.67,1.45-1.65,1.5-1.64,1.54-1.63,1.59-1.68,1.71-1.67,1.75-1.65,1.79-1.63,1.84-3.19,3.8-3.1,3.95-3,4.1-2.88,4.23-2.76,4.35-2.64,4.46-2.45,4.45-2.31,4.52-2.17,4.58-2.02,4.63-1.87,4.67-1.72,4.71-1.56,4.73-1.39,4.74-1.13,4.35-.98,4.32-.84,4.29-.68,4.25-.53,4.2-.21,2.08-.17,2.07-.13,2.05-.09,2.04-.06,2.02-.02,2,.02,1.98,.06,1.96,.1,1.93,.13,1.91,.17,1.88,.21,1.85,.25,1.82,.29,1.79,.32,1.77,.36,1.73,.4,1.7,.44,1.67,.47,1.64,.51,1.61,.55,1.57,.58,1.54,.68,1.63,.71,1.58,.76,1.54,1.21,2.21,1.3,2.1,1.38,1.99,1.47,1.87,1.55,1.75,1.63,1.63,1.13,1.02,1.17,.97,1.2,.91,1.24,.86,1.3,.82,1.33,.76,1.36,.69,1.39,.63,1.42,.57,1.45,.51,1.48,.45,1.5,.38,1.53,.32,1.55,.25,1.58,.19,1.6,.13,2.44,.07,1.65-.03,1.67-.1,.84-.07,1.62-.18,1.64-.24,1.65-.3,1.66-.36,1.67-.42,1.68-.48,1.69-.53,1.7-.59,2.44-.95,2.45-1.06,2.46-1.18,2.46-1.29,2.47-1.4,2.46-1.51,2.46-1.62,2.45-1.72,1.7-1.26,1.7-1.31,1.69-1.36,1.68-1.41,1.67-1.46,1.65-1.5,1.64-1.54,1.63-1.59,1.68-1.71,1.67-1.75,1.65-1.79,1.63-1.84,3.19-3.8,3.1-3.95,3-4.1,2.88-4.23,2.76-4.35,2.64-4.46,2.45-4.45,2.31-4.52,2.17-4.58,2.02-4.63,1.87-4.67,1.72-4.71,1.56-4.73,1.39-4.74,1.13-4.35,.98-4.32,.83-4.29,.68-4.25,.54-4.2,.21-2.08,.17-2.07,.13-2.05,.1-2.04,.06-2.02,.02-2-.02-1.98-.06-1.96-.1-1.93-.13-1.91-.17-1.88-.21-1.85-.25-1.82-.29-1.79-.32-1.76-.36-1.74-.4-1.7-.44-1.67-.47-1.64-.51-1.61-.55-1.57-.58-1.54-.68-1.63-.71-1.58-.76-1.53-1.21-2.21-1.3-2.1-1.38-1.99-1.47-1.87-1.02-1.18-1.61-1.67-1.12-1.05-1.15-.99-1.18-.94-1.22-.88-1.27-.84-1.31-.79-1.34-.73-1.38-.66-1.4-.6-1.43-.54-1.46-.48-1.49-.41-1.52-.35-1.54-.29-1.56-.22-1.59-.16-1.61-.1-1.63-.03Z"/></g><g id="POLYLINE-6"><path class="cls-2" d="M198.41,223.35l-2.4-.06-2.35-.2-2.3-.34-1.51-.3-2.21-.56-2.16-.69-1.41-.54-1.38-.6-1.35-.66-1.33-.71-1.3-.77-1.27-.83-1.83-1.35-1.18-.97-1.71-1.55-1.1-1.1-1.06-1.16-1.52-1.83-1.44-1.95-1.35-2.06-.43-.71-.83-1.46-.79-1.5-.75-1.55-.71-1.6-.67-1.64-.58-1.56-.54-1.59-.51-1.62-.47-1.66-.43-1.69-.4-1.72-.36-1.75-.32-1.78-.29-1.81-.25-1.84-.21-1.86-.17-1.89-.13-1.92-.1-1.94-.06-1.97-.02-1.99,.02-2.01,.06-2.03,.1-2.04,.13-2.06,.38-4.16,.53-4.22,.68-4.26,.83-4.3,.97-4.33,1.12-4.36,1.37-4.72,1.54-4.72,1.69-4.7,1.85-4.68,2-4.64,2.14-4.58,2.28-4.52,2.42-4.45,2.55-4.37,2.66-4.26,2.77-4.15,2.88-4.03,2.97-3.9,3.07-3.76,3.15-3.61,3.24-3.46,2.93-2.93,2.98-2.79,3.02-2.65,1.52-1.27,1.53-1.23,1.54-1.19,1.54-1.15,1.55-1.11,1.55-1.07,1.56-1.03,1.56-.98,2.34-1.4,2.52-1.39,1.57-.81,1.56-.76,1.56-.72,1.56-.67,1.55-.63,1.55-.58,1.55-.53,1.54-.49,1.53-.44,1.53-.39,1.52-.35,1.51-.3,1.5-.25,1.49-.2,1.48-.16,2.29-.15,1.62-.03,2.4,.06,2.35,.2,1.54,.21,2.27,.43,1.48,.36,1.46,.42,1.43,.48,1.41,.54,1.38,.6,1.35,.65,1.33,.71,1.3,.77,1.27,.83,1.23,.88,1.2,.94,1.73,1.51,1.11,1.08,1.08,1.13,1.04,1.18,1.49,1.87,1.41,1.99,1.32,2.1,.83,1.46,.79,1.5,.75,1.55,.71,1.6,.67,1.64,.58,1.56,.54,1.59,.51,1.62,.47,1.66,.43,1.69,.4,1.72,.36,1.75,.32,1.78,.29,1.81,.25,1.84,.21,1.86,.17,1.89,.13,1.92,.1,1.94,.06,1.97,.02,1.99-.02,2.01-.06,2.03-.1,2.04-.13,2.06-.38,4.16-.53,4.22-.68,4.26-.83,4.3-.98,4.33-1.12,4.36-1.37,4.72-1.54,4.72-1.69,4.7-1.85,4.68-2,4.64-2.14,4.58-2.28,4.52-2.42,4.45-2.55,4.37-2.66,4.26-2.77,4.15-2.88,4.03-2.97,3.9-3.07,3.76-3.15,3.61-3.23,3.46-2.93,2.93-2.98,2.79-3.02,2.65-1.52,1.27-1.53,1.23-1.54,1.19-1.54,1.15-1.55,1.11-1.55,1.07-1.56,1.03-1.56,.98-2.34,1.4-1.66,.93-2.43,1.27-1.57,.76-1.56,.72-1.56,.67-1.56,.63-1.55,.58-1.55,.53-1.54,.49-1.53,.44-1.53,.39-1.52,.35-1.51,.3-1.5,.25-1.49,.2-1.48,.16-2.29,.15-1.62,.03ZM253.71,38.63l-2.42,.07-1.45,.11-1.46,.15-1.47,.2-1.48,.25-1.49,.3-1.5,.34-1.51,.39-1.52,.44-1.53,.48-1.53,.53-1.54,.58-1.54,.62-1.55,.67-1.55,.71-1.55,.76-1.55,.8-2.51,1.38-2.33,1.39-1.55,.98-1.55,1.02-1.55,1.06-1.54,1.1-1.54,1.14-1.53,1.18-1.52,1.22-1.52,1.26-3.01,2.64-2.97,2.78-2.92,2.92-3.22,3.45-3.14,3.6-3.06,3.75-2.96,3.88-2.87,4.01-2.76,4.13-2.66,4.25-2.54,4.36-2.41,4.43-2.27,4.51-2.14,4.57-1.99,4.62-1.84,4.67-1.69,4.69-1.53,4.7-1.37,4.71-1.12,4.35-.97,4.32-.83,4.29-.68,4.25-.53,4.2-.38,4.15-.13,2.05-.09,2.04-.06,2.02-.02,2,.02,1.98,.06,1.96,.1,1.93,.13,1.91,.17,1.88,.21,1.85,.25,1.83,.28,1.8,.32,1.77,.36,1.74,.39,1.71,.43,1.67,.47,1.64,.5,1.61,.54,1.58,.58,1.54,.66,1.63,.7,1.58,.74,1.53,.78,1.49,1.25,2.14,1.33,2.04,1.42,1.93,1.5,1.81,1.58,1.69,1.66,1.57,1.15,.98,1.18,.93,1.21,.87,1.25,.82,1.28,.76,1.31,.7,1.33,.65,1.36,.59,1.39,.53,2.13,.68,1.45,.38,2.22,.46,2.27,.33,2.32,.2,2.37,.06,2.42-.07,1.45-.11,1.46-.16,1.47-.2,1.48-.25,1.49-.3,1.5-.34,1.51-.39,1.52-.44,1.53-.48,1.53-.53,1.54-.58,1.54-.62,1.55-.67,1.55-.71,1.55-.76,2.42-1.26,1.64-.92,2.33-1.39,1.55-.98,1.55-1.02,1.55-1.06,1.54-1.1,1.54-1.14,1.53-1.18,1.53-1.22,1.52-1.26,3.01-2.64,2.97-2.78,2.92-2.92,3.22-3.45,3.14-3.6,3.06-3.75,2.96-3.88,2.87-4.01,2.76-4.14,2.66-4.25,2.54-4.36,2.41-4.43,2.27-4.51,2.14-4.57,1.99-4.62,1.84-4.67,1.69-4.69,1.53-4.7,1.37-4.71,1.12-4.34,.97-4.32,.83-4.29,.68-4.25,.53-4.2,.38-4.15,.13-2.05,.09-2.04,.06-2.02,.02-2-.02-1.98-.06-1.96-.1-1.93-.13-1.91-.17-1.88-.21-1.85-.25-1.82-.28-1.8-.32-1.77-.36-1.74-.39-1.71-.43-1.67-.47-1.64-.5-1.61-.54-1.58-.58-1.54-.66-1.63-.7-1.58-.74-1.54-.78-1.49-1.25-2.14-1.34-2.04-1.42-1.93-1.5-1.81-1.58-1.69-1.1-1.06-1.71-1.49-1.18-.93-1.21-.87-1.25-.82-1.28-.76-1.31-.7-1.33-.65-1.36-.59-1.39-.53-1.41-.47-2.17-.6-2.22-.46-2.27-.33-2.32-.2-2.37-.06Z"/></g><g id="POLYLINE-7"><path class="cls-2" d="M187.36,216.43l-1.67-.04-1.65-.11-1.62-.17-1.6-.24-1.58-.31-1.55-.38-1.52-.44-1.5-.51-1.47-.57-1.43-.64-1.4-.7-1.37-.77-1.34-.83-1.26-.86-1.23-.92-1.19-.97-1.16-1.03-1.12-1.08-1.08-1.14-1.55-1.81-1.47-1.93-1.38-2.04-1.29-2.16-.81-1.5-.77-1.55-.73-1.6-.69-1.65-.59-1.55-.55-1.58-.52-1.62-.48-1.65-.44-1.68-.4-1.71-.37-1.75-.33-1.78-.29-1.81-.25-1.83-.21-1.86-.17-1.89-.14-1.92-.1-1.94-.06-1.97-.02-1.99,.02-2.01,.06-2.03,.1-2.05,.14-2.06,.17-2.08,.21-2.09,.54-4.22,.69-4.27,.84-4.31,.99-4.34,1.14-4.36,1.41-4.77,1.57-4.75,1.73-4.73,1.89-4.7,2.04-4.65,2.19-4.6,2.33-4.54,2.47-4.47,2.69-4.52,2.82-4.4,2.94-4.28,3.06-4.14,3.16-3.99,1.62-1.94,1.64-1.89,1.66-1.85,1.68-1.81,1.7-1.76,1.72-1.71,2.67-2.53,2.7-2.41,2.73-2.29,2.76-2.17,1.44-1.08,2.89-2.04,1.45-.97,1.46-.93,1.46-.89,1.46-.85,1.46-.81,1.46-.78,1.46-.74,1.46-.7,1.46-.66,1.45-.62,1.45-.58,1.45-.54,1.44-.5,1.38-.44,1.38-.4,1.37-.36,1.36-.32,1.36-.28,1.35-.25,1.34-.21,2.2-.26,1.72-.13,1.7-.06h.84l1.67,.04,1.65,.11,1.62,.17,1.6,.24,1.58,.31,1.55,.37,1.52,.44,1.5,.51,1.46,.57,1.44,.64,1.4,.7,1.37,.77,1.34,.83,1.26,.86,1.23,.92,1.19,.97,1.16,1.03,1.12,1.09,1.08,1.14,1.55,1.81,1.47,1.93,1.38,2.04,1.29,2.16,.81,1.5,.77,1.55,.73,1.6,.68,1.65,.59,1.55,.55,1.58,.52,1.62,.48,1.65,.44,1.68,.4,1.71,.37,1.75,.33,1.78,.29,1.81,.25,1.83,.21,1.86,.17,1.89,.13,1.92,.1,1.94,.06,1.97,.02,1.99-.02,2.01-.06,2.03-.1,2.05-.14,2.06-.17,2.08-.21,2.09-.54,4.22-.69,4.27-.84,4.31-.99,4.34-1.14,4.36-1.41,4.77-1.57,4.75-1.73,4.73-1.89,4.7-2.04,4.65-2.19,4.6-2.33,4.54-2.47,4.47-2.69,4.52-2.82,4.4-2.94,4.28-3.06,4.14-3.16,3.99-1.62,1.94-1.64,1.89-1.66,1.85-1.68,1.81-1.7,1.76-1.72,1.71-2.67,2.53-2.7,2.41-2.73,2.29-2.76,2.17-2.89,2.11-1.45,1-2.91,1.89-1.46,.89-1.46,.85-1.46,.82-1.46,.77-1.46,.74-1.46,.7-1.46,.66-1.45,.62-1.45,.58-1.45,.54-1.44,.5-1.38,.44-1.38,.4-1.37,.36-1.36,.32-1.36,.29-1.35,.25-1.34,.21-2.2,.26-1.72,.13-1.7,.06h-.84ZM242.39,34.35l-1.67,.03-1.69,.09-1.71,.16-1.32,.17-1.33,.21-1.34,.24-1.34,.28-1.35,.32-1.36,.36-1.37,.4-1.37,.44-1.43,.49-1.44,.53-1.44,.57-1.44,.61-1.45,.65-1.45,.69-1.45,.73-1.45,.77-1.45,.81-1.45,.85-1.45,.89-1.45,.92-1.45,.96-2.88,2.03-1.43,1.07-2.75,2.16-2.72,2.28-2.69,2.4-2.66,2.52-1.71,1.71-1.7,1.75-1.67,1.8-1.66,1.84-1.63,1.89-1.61,1.93-3.15,3.98-3.05,4.13-2.93,4.27-2.81,4.39-2.69,4.51-2.47,4.45-2.33,4.52-2.18,4.59-2.04,4.64-1.88,4.68-1.73,4.71-1.57,4.74-1.4,4.75-1.13,4.35-.99,4.33-.84,4.29-.69,4.25-.54,4.21-.21,2.08-.17,2.07-.14,2.05-.1,2.04-.06,2.02-.02,2,.02,1.98,.06,1.96,.1,1.93,.13,1.91,.17,1.88,.21,1.85,.25,1.82,.29,1.79,.33,1.76,.36,1.73,.4,1.7,.44,1.67,.47,1.64,.51,1.6,.55,1.57,.58,1.53,.68,1.63,.72,1.58,.76,1.53,1.22,2.21,1.3,2.1,1.39,1.98,.98,1.26,1.53,1.79,1.07,1.12,1.1,1.07,1.14,1.02,1.17,.96,1.21,.91,1.24,.85,1.32,.82,1.35,.75,1.38,.69,1.41,.63,1.44,.56,1.47,.5,1.5,.43,1.53,.37,1.56,.3,1.58,.24,1.6,.17,1.62,.11,1.65,.04,1.67-.03,1.69-.09,1.71-.16,1.32-.17,1.33-.21,1.34-.24,1.34-.28,1.35-.32,1.36-.36,1.37-.4,1.37-.44,1.43-.49,1.44-.53,1.44-.57,1.44-.61,1.45-.65,1.45-.69,1.45-.73,1.45-.77,1.45-.81,1.45-.85,1.45-.89,2.89-1.88,2.88-2.03,1.43-1.07,2.75-2.16,2.72-2.28,2.69-2.4,2.66-2.52,1.71-1.71,1.69-1.75,1.68-1.8,1.65-1.84,1.63-1.89,1.61-1.93,3.15-3.98,3.05-4.13,2.93-4.26,2.81-4.39,2.69-4.51,2.47-4.45,2.33-4.52,2.18-4.59,2.04-4.64,1.88-4.68,1.73-4.71,1.57-4.74,1.4-4.75,1.14-4.35,.99-4.32,.84-4.29,.69-4.25,.54-4.21,.21-2.08,.17-2.07,.13-2.05,.1-2.04,.06-2.02,.02-2-.02-1.98-.06-1.96-.1-1.93-.13-1.91-.17-1.88-.21-1.85-.25-1.82-.29-1.79-.33-1.76-.36-1.73-.4-1.7-.44-1.67-.47-1.64-.51-1.6-.55-1.57-.58-1.53-.68-1.63-.72-1.58-.76-1.54-1.22-2.21-1.3-2.1-1.39-1.98-.97-1.26-1.53-1.79-1.07-1.13-1.1-1.07-1.14-1.02-1.17-.96-1.21-.91-1.24-.85-1.32-.82-1.35-.75-1.38-.69-1.41-.63-1.44-.56-1.47-.5-1.5-.43-1.53-.37-1.56-.3-1.58-.24-1.6-.17-1.63-.11-1.65-.04Z"/></g><g id="POLYLINE-8"><path class="cls-2" d="M177.16,207.12l-2.08-.07-2.04-.18-2-.29-1.96-.4-1.92-.5-1.87-.61-1.83-.71-1.78-.82-1.16-.6-.99-.57-.97-.6-.95-.64-.93-.67-.91-.71-.89-.74-.87-.77-.85-.8-.83-.84-.81-.87-.79-.9-.76-.93-.74-.96-.72-1-.7-1.03-1.14-1.83-.89-1.59-.85-1.65-.79-1.71-.38-.87-.62-1.53-.58-1.56-.54-1.6-.5-1.63-.46-1.67-.42-1.7-.38-1.74-.34-1.77-.3-1.8-.26-1.83-.22-1.86-.18-1.89-.14-1.92-.1-1.94-.06-1.97-.02-2,.02-2.02,.06-2.04,.1-2.05,.14-2.07,.18-2.08,.22-2.1,.26-2.11,.3-2.13,.72-4.29,.88-4.33,1.04-4.36,1.19-4.38,.77-2.56,.82-2.56,.87-2.56,.92-2.55,1.36-3.56,1.46-3.54,1.54-3.51,1.63-3.47,1.71-3.43,1.8-3.39,1.88-3.35,1.96-3.29,2.32-3.69,2.41-3.6,2.49-3.5,2.58-3.4,2.65-3.29,2.71-3.17,2.78-3.05,2.83-2.92,2.59-2.5,2.62-2.39,2.65-2.27,2.68-2.14,1.47-1.11,1.47-1.07,1.47-1.03,1.48-.99,1.48-.95,1.49-.91,1.49-.87,1.49-.83,1.49-.79,1.49-.75,1.48-.7,1.48-.66,1.48-.62,1.48-.57,1.47-.53,1.47-.49,1.35-.41,1.34-.37,1.33-.33,1.33-.29,1.32-.26,1.31-.22,1.3-.18,1.29-.14,1.43-.11,1.42-.06h1.4l2.08,.06,2.04,.18,2,.29,1.96,.39,1.92,.5,1.87,.61,1.83,.71,1.78,.82,1.16,.6,.99,.57,.97,.6,.95,.64,.93,.67,.92,.7,.89,.74,.87,.77,.85,.8,.83,.84,.81,.87,.79,.9,.76,.93,.74,.96,.72,1,.7,1.03,1.14,1.83,.89,1.59,.85,1.65,.79,1.71,.38,.87,.62,1.52,.58,1.56,.54,1.6,.5,1.63,.46,1.67,.42,1.7,.38,1.74,.34,1.77,.3,1.8,.26,1.83,.22,1.86,.18,1.89,.14,1.92,.1,1.94,.06,1.97,.02,2-.02,2.02-.06,2.04-.1,2.05-.14,2.07-.18,2.09-.22,2.1-.26,2.11-.3,2.13-.72,4.29-.88,4.33-1.04,4.36-1.19,4.38-.77,2.56-.82,2.56-.87,2.56-.92,2.55-1.36,3.56-1.46,3.54-1.54,3.51-1.63,3.47-1.71,3.43-1.8,3.39-1.88,3.34-1.96,3.3-2.32,3.69-2.41,3.6-2.49,3.5-2.58,3.4-2.65,3.29-2.71,3.17-2.77,3.05-2.83,2.92-2.59,2.5-2.62,2.39-2.65,2.27-2.68,2.14-1.47,1.11-1.47,1.07-1.48,1.03-1.48,.99-1.48,.95-1.48,.91-1.49,.87-1.49,.83-1.48,.79-1.49,.75-1.49,.7-1.48,.66-1.48,.62-1.48,.58-1.47,.53-1.47,.49-1.35,.41-1.34,.37-1.33,.33-1.33,.29-1.32,.25-1.31,.22-1.3,.18-1.29,.14-1.43,.11-1.42,.06h-1.4ZM230.22,32.45h-1.39l-1.4,.07-1.41,.11-1.28,.14-1.29,.18-1.3,.21-1.31,.25-1.31,.29-1.32,.33-1.33,.37-1.33,.4-1.46,.48-1.46,.53-1.47,.57-1.47,.61-1.47,.66-1.47,.7-1.48,.74-1.48,.78-1.48,.83-1.48,.87-1.48,.91-1.47,.95-1.47,.99-1.47,1.03-1.46,1.07-1.46,1.11-2.67,2.13-2.64,2.26-2.61,2.38-2.58,2.49-2.82,2.9-2.77,3.03-2.7,3.16-2.64,3.28-2.57,3.39-2.49,3.49-2.4,3.58-2.31,3.68-1.95,3.28-1.87,3.33-1.79,3.38-1.71,3.42-1.62,3.46-1.54,3.5-1.45,3.53-1.36,3.55-.91,2.54-.86,2.55-.81,2.55-.76,2.55-1.19,4.36-1.03,4.34-.88,4.31-.72,4.27-.3,2.12-.26,2.11-.22,2.09-.18,2.08-.14,2.06-.1,2.04-.06,2.03-.02,2.01,.02,1.98,.06,1.96,.1,1.93,.14,1.91,.18,1.88,.22,1.85,.26,1.82,.3,1.79,.34,1.76,.38,1.72,.42,1.69,.46,1.66,.5,1.62,.53,1.59,.57,1.55,.99,2.38,.79,1.69,.84,1.63,.88,1.57,.46,.77,.67,1.05,.69,1.01,.71,.98,.73,.95,.75,.92,.78,.89,.8,.86,.82,.83,.84,.79,.86,.76,.88,.73,.9,.69,.92,.66,.94,.63,.96,.59,2.12,1.15,1.75,.81,1.8,.7,1.85,.6,1.89,.5,1.94,.39,1.98,.28,2.01,.18,2.05,.07h1.39l1.4-.07,1.41-.11,1.28-.14,1.29-.18,1.3-.21,1.3-.25,1.31-.29,1.32-.33,1.33-.37,1.33-.4,1.46-.48,1.46-.53,1.46-.57,1.47-.61,1.47-.66,1.47-.7,1.48-.74,1.48-.78,1.48-.83,1.48-.87,1.48-.91,1.47-.95,1.47-.99,1.47-1.03,1.46-1.07,1.46-1.11,2.67-2.13,2.64-2.26,2.61-2.38,2.58-2.49,2.82-2.9,2.76-3.03,2.7-3.16,2.64-3.28,2.57-3.39,2.49-3.49,2.4-3.58,2.31-3.67,1.95-3.29,1.87-3.33,1.79-3.38,1.71-3.42,1.62-3.46,1.54-3.5,1.45-3.53,1.36-3.55,.91-2.54,.86-2.55,.81-2.55,.76-2.55,1.19-4.37,1.03-4.34,.88-4.31,.72-4.27,.3-2.12,.26-2.11,.22-2.09,.18-2.08,.14-2.06,.1-2.04,.06-2.03,.02-2.01-.02-1.99-.06-1.96-.1-1.93-.14-1.91-.18-1.88-.22-1.85-.26-1.82-.3-1.79-.34-1.75-.38-1.72-.42-1.69-.46-1.66-.5-1.62-.54-1.59-.57-1.55-.98-2.38-.79-1.69-.84-1.63-.88-1.57-1.13-1.81-.69-1.02-.71-.98-.73-.95-.75-.92-.78-.89-.8-.86-.82-.83-.84-.79-.86-.76-.88-.73-.9-.69-.92-.66-.94-.63-.96-.59-2.12-1.15-1.75-.81-1.8-.7-1.85-.6-1.89-.49-1.94-.39-1.98-.28-2.01-.18-2.05-.07Z"/></g><g id="POLYLINE-9"><path class="cls-2" d="M168.1,195.12l-1.99-.06-1.96-.17-1.92-.28-1.88-.38-2.17-.59-1.23-.41-1.53-.59-1.49-.67-1.45-.75-1.41-.83-1.37-.9-1.33-.98-1.28-1.05-1.24-1.13-1.19-1.2-1.14-1.27-1.09-1.34-1.04-1.41-.99-1.47-.94-1.54-.88-1.6-.83-1.67-.67-1.48-.63-1.52-.59-1.56-.54-1.61-.5-1.64-.46-1.68-.42-1.72-.37-1.75-.33-1.79-.29-1.82-.24-1.86-.2-1.89-.15-1.92-.11-1.95-.07-1.98-.02-2.01,.02-2.03,.07-2.05,.11-2.07,.16-2.08,.2-2.1,.24-2.12,.29-2.13,.33-2.14,.37-2.16,.42-2.17,.46-2.18,.5-2.18,1.13-4.39,1.29-4.4,.83-2.56,.88-2.56,.93-2.55,.98-2.54,1.04-2.53,1.08-2.51,1.13-2.5,1.18-2.48,1.23-2.46,1.27-2.43,1.32-2.41,1.36-2.38,1.4-2.35,1.44-2.31,1.48-2.28,1.52-2.24,2.46-3.44,1.85-2.45,1.89-2.39,1.93-2.32,1.97-2.26,2-2.19,2.03-2.11,2.06-2.04,2.09-1.96,2.11-1.88,2.13-1.79,2.15-1.71,2.16-1.62,2.17-1.53,2.18-1.43,2.19-1.34,3.3-1.83,2.19-1.1,2.19-1,2.18-.89,2.17-.79,2.16-.69,2.14-.58,2.13-.48,2.11-.37,2.08-.26,2.06-.16,2.02-.05,1.99,.06,1.96,.17,1.92,.27,1.88,.38,2.17,.59,1.23,.41,1.53,.59,1.49,.67,1.45,.75,1.41,.83,1.37,.9,1.33,.98,1.28,1.05,1.24,1.13,1.19,1.2,1.14,1.27,1.09,1.34,1.04,1.41,.99,1.47,.94,1.54,.88,1.6,.83,1.67,.67,1.48,.63,1.52,.59,1.56,.54,1.6,.5,1.64,.46,1.68,.42,1.72,.37,1.75,.33,1.79,.29,1.82,.24,1.86,.2,1.89,.15,1.92,.11,1.95,.07,1.98,.02,2.01-.02,2.03-.07,2.05-.11,2.07-.16,2.08-.2,2.1-.24,2.12-.29,2.13-.33,2.14-.37,2.16-.41,2.17-.46,2.18-.5,2.18-1.12,4.38-1.29,4.4-.83,2.56-.88,2.56-.93,2.55-.98,2.54-1.04,2.53-1.08,2.51-1.13,2.5-1.18,2.48-1.23,2.46-1.27,2.43-1.32,2.41-1.36,2.38-1.4,2.34-1.44,2.31-1.48,2.28-1.52,2.24-2.46,3.44-1.85,2.45-1.89,2.39-1.93,2.32-1.97,2.25-2,2.19-2.03,2.11-2.06,2.04-2.09,1.96-2.11,1.88-2.13,1.79-2.15,1.71-2.16,1.62-2.17,1.53-2.18,1.44-2.19,1.34-2.2,1.25-2.19,1.15-2.19,1.05-2.18,.95-2.18,.84-2.17,.74-2.15,.63-2.14,.53-2.12,.42-2.1,.32-2.07,.21-2.04,.1h-1.01ZM216.92,33.24l-2,.05-2.03,.15-2.06,.26-2.08,.37-2.11,.47-2.12,.58-2.14,.68-2.15,.78-2.16,.89-2.17,.99-2.18,1.09-1.09,.58-2.18,1.24-2.18,1.33-2.17,1.43-2.16,1.52-2.15,1.61-2.14,1.7-2.12,1.78-2.1,1.87-2.08,1.95-2.05,2.03-2.02,2.1-1.99,2.18-1.96,2.25-1.92,2.32-1.88,2.38-1.85,2.44-2.45,3.43-1.51,2.23-1.47,2.27-1.44,2.3-1.39,2.34-1.35,2.37-1.31,2.4-1.27,2.42-1.22,2.45-1.18,2.47-1.13,2.49-1.08,2.5-1.03,2.52-.98,2.53-.93,2.54-.88,2.55-.82,2.55-1.29,4.39-1.12,4.37-.5,2.17-.46,2.17-.41,2.16-.37,2.15-.33,2.14-.28,2.12-.24,2.11-.2,2.09-.15,2.08-.11,2.06-.07,2.04-.02,2.02,.02,1.99,.07,1.97,.11,1.94,.15,1.91,.2,1.88,.24,1.84,.28,1.81,.33,1.78,.37,1.74,.41,1.7,.45,1.67,.5,1.63,.54,1.59,.58,1.55,.62,1.51,1.06,2.3,.85,1.62,.9,1.55,.95,1.49,1,1.42,1.05,1.36,1.1,1.29,1.15,1.22,1.2,1.15,1.24,1.07,1.28,1,1.33,.92,1.37,.85,1.41,.77,1.45,.7,1.48,.62,1.96,.68,1.23,.35,1.84,.43,1.87,.32,1.91,.22,1.95,.11,.99,.02,2-.05,2.03-.15,2.06-.26,2.08-.37,2.11-.47,2.12-.58,2.14-.68,2.15-.79,2.16-.89,2.17-.99,2.18-1.09,1.09-.58,2.19-1.24,2.17-1.33,2.17-1.43,2.16-1.52,2.15-1.61,2.14-1.7,2.12-1.79,2.1-1.87,2.08-1.95,2.05-2.03,2.02-2.1,1.99-2.18,1.96-2.25,1.92-2.32,1.89-2.38,1.85-2.44,2.45-3.43,1.51-2.23,1.47-2.27,1.44-2.3,1.4-2.34,1.35-2.37,1.31-2.4,1.27-2.43,1.23-2.45,1.18-2.47,1.13-2.49,1.08-2.5,1.03-2.52,.98-2.53,.93-2.54,.88-2.55,.82-2.55,1.29-4.39,1.12-4.37,.5-2.17,.46-2.17,.41-2.16,.37-2.15,.33-2.13,.28-2.12,.24-2.11,.2-2.09,.15-2.08,.11-2.06,.07-2.04,.02-2.02-.02-1.99-.07-1.97-.11-1.94-.15-1.91-.2-1.88-.24-1.84-.28-1.81-.33-1.78-.37-1.74-.41-1.7-.45-1.67-.5-1.63-.54-1.59-.58-1.55-.62-1.51-1.07-2.3-.85-1.62-.9-1.55-.95-1.49-1-1.42-1.05-1.35-1.1-1.29-1.15-1.22-1.2-1.15-1.24-1.07-1.28-1-1.32-.92-1.37-.85-1.41-.77-1.45-.7-1.48-.62-1.96-.68-1.23-.35-1.84-.43-1.88-.32-1.91-.22-1.95-.11-.99-.02Z"/></g><g id="POLYLINE-10"><path class="cls-2" d="M159.58,179.69l-1.72-.07-1.69-.16-1.66-.25-1.62-.34-1.58-.43-1.54-.52-1.5-.61-1.46-.69-1.42-.78-1.37-.87-1.32-.95-1.27-1.04-1.23-1.12-1.17-1.2-1.12-1.29-1.24-1.6-.67-.95-.64-.99-1.01-1.71-.75-1.42-.7-1.47-.65-1.52-.6-1.57-.81-2.44-.48-1.68-.43-1.72-.38-1.77-.33-1.81-.28-1.85-.23-1.89-.18-1.92-.13-1.96-.08-1.99-.03-2.03,.03-2.05,.08-2.08,.13-2.1,.18-2.12,.23-2.13,.28-2.15,.33-2.17,.38-2.18,.43-2.19,.48-2.2,.53-2.21,.58-2.21,.63-2.22,.67-2.22,.72-2.22,.77-2.22,1.25-3.37,1.36-3.35,1.09-2.51,1.14-2.48,1.19-2.45,1.24-2.43,1.29-2.39,1.34-2.36,1.38-2.32,1.43-2.29,1.47-2.25,1.51-2.2,1.55-2.16,1.59-2.11,1.63-2.06,1.66-2.01,1.7-1.96,1.73-1.9,2.5-2.6,1.27-1.25,2.57-2.39,1.3-1.14,1.3-1.11,1.31-1.07,1.32-1.03,1.33-.99,1.33-.96,1.34-.92,1.34-.88,1.34-.84,1.35-.8,1.35-.76,1.35-.71,1.35-.67,1.35-.63,1.34-.58,1.34-.54,1.33-.5,1.33-.45,1.32-.41,1.32-.36,1.31-.32,1.3-.27,1.29-.23,2.56-.31,1.89-.11,1.5-.02,1.72,.07,1.69,.16,1.65,.25,1.62,.34,1.58,.43,1.54,.52,1.5,.61,1.46,.69,1.42,.78,1.37,.87,1.32,.95,1.28,1.04,1.23,1.12,1.17,1.2,1.12,1.29,1.24,1.6,.67,.95,.64,.99,1.01,1.71,.75,1.42,.7,1.47,.65,1.52,.89,2.37,.53,1.64,.48,1.68,.43,1.73,.38,1.77,.33,1.81,.28,1.85,.23,1.89,.18,1.92,.13,1.96,.08,1.99,.03,2.03-.03,2.05-.08,2.08-.13,2.1-.18,2.12-.23,2.13-.28,2.15-.33,2.17-.38,2.18-.43,2.19-.48,2.2-.53,2.21-.58,2.21-.63,2.22-.67,2.22-.72,2.22-.77,2.22-1.25,3.37-1.36,3.35-1.09,2.51-1.14,2.48-1.19,2.45-1.24,2.43-1.29,2.39-1.34,2.36-1.38,2.32-1.43,2.29-1.47,2.25-1.51,2.2-1.55,2.16-1.59,2.11-1.63,2.06-1.66,2.01-1.7,1.96-1.73,1.9-1.25,1.32-2.52,2.53-1.28,1.21-1.29,1.18-1.3,1.14-1.3,1.11-1.31,1.07-1.32,1.03-1.33,.99-1.33,.96-1.34,.92-1.34,.88-1.34,.84-1.35,.8-1.36,.76-1.35,.71-1.35,.67-1.35,.63-1.34,.58-1.34,.54-1.33,.5-1.33,.45-1.32,.41-1.31,.36-1.31,.32-1.3,.27-1.29,.22-2.56,.31-1.89,.11-1.5,.02ZM203.07,37.47l-2.09,.04-1.87,.15-.63,.07-1.27,.18-1.27,.22-1.29,.27-1.29,.31-1.3,.36-1.31,.4-1.31,.45-1.32,.49-1.33,.53-1.33,.58-1.33,.62-1.34,.67-1.34,.71-1.34,.75-1.34,.79-1.33,.83-1.33,.87-1.33,.91-1.32,.95-1.32,.99-1.31,1.03-1.3,1.06-1.3,1.1-1.29,1.14-1.28,1.17-1.27,1.21-2.51,2.52-1.24,1.31-1.72,1.9-1.69,1.95-1.65,2-1.62,2.05-1.58,2.1-1.54,2.15-1.5,2.2-1.46,2.24-1.42,2.28-1.38,2.31-1.33,2.35-1.29,2.38-1.24,2.42-1.19,2.44-1.14,2.47-1.08,2.5-1.35,3.33-1.25,3.35-.76,2.21-.72,2.21-.67,2.21-.62,2.21-.57,2.21-.53,2.2-.48,2.19-.43,2.18-.38,2.17-.33,2.16-.28,2.14-.23,2.12-.18,2.11-.13,2.09-.08,2.07-.03,2.04,.03,2.01,.08,1.98,.13,1.95,.18,1.91,.23,1.87,.28,1.83,.33,1.79,.38,1.75,.43,1.71,.73,2.48,.84,2.38,.62,1.53,.67,1.48,.72,1.43,.76,1.38,.61,1.01,.63,.97,1.34,1.85,1.08,1.31,1.13,1.23,1.18,1.14,1.23,1.06,1.28,.98,1.32,.89,1.37,.81,1.41,.72,1.45,.64,1.49,.55,1.53,.46,1.57,.38,1.61,.29,1.64,.2,1.68,.11,.85,.02,2.09-.04,1.87-.15,.63-.07,1.27-.18,1.28-.22,1.29-.27,1.29-.31,1.3-.36,1.31-.4,1.31-.45,1.32-.49,1.33-.53,1.33-.58,1.33-.62,1.34-.67,1.34-.71,1.34-.75,1.34-.79,1.34-.83,1.33-.87,1.33-.91,1.32-.95,1.32-.99,1.31-1.03,1.3-1.06,1.3-1.1,1.29-1.14,1.28-1.17,1.27-1.21,2.51-2.52,1.24-1.31,1.72-1.9,1.69-1.95,1.65-2,1.62-2.05,1.58-2.1,1.54-2.15,1.5-2.2,1.46-2.24,1.42-2.28,1.38-2.31,1.33-2.35,1.29-2.38,1.24-2.42,1.19-2.44,1.14-2.47,1.08-2.5,1.35-3.33,1.25-3.36,.76-2.21,.72-2.21,.67-2.21,.62-2.21,.57-2.21,.53-2.2,.48-2.19,.43-2.18,.38-2.17,.33-2.16,.28-2.14,.23-2.12,.18-2.11,.13-2.09,.08-2.07,.03-2.04-.03-2.01-.08-1.98-.13-1.95-.18-1.91-.23-1.87-.28-1.83-.33-1.79-.38-1.75-.43-1.71-.73-2.48-.84-2.38-.62-1.53-.67-1.48-.72-1.43-.76-1.38-.61-1.01-.63-.98-1.34-1.85-1.08-1.31-1.13-1.23-1.18-1.14-1.23-1.06-1.28-.98-1.32-.89-1.37-.81-1.41-.72-1.45-.64-1.49-.55-1.53-.46-1.57-.38-1.61-.29-1.64-.2-1.68-.11-.85-.02Z"/></g><g id="POLYLINE-11"><path class="cls-2" d="M152.97,159.06l-1.29-.05-1.28-.12-1.25-.18-1.88-.41-1.63-.49-1.57-.61-1.51-.74-1.45-.85-1.39-.97-1.32-1.09-1.25-1.2-.82-.89-.99-1.2-.93-1.28-.86-1.35-.8-1.42-.74-1.49-.67-1.56-.61-1.62-.54-1.69-.48-1.75-.41-1.81-.34-1.86-.28-1.92-.21-1.97-.14-2.02-.04-1.03-.04-2.09,.04-2.13,.1-2.16,.17-2.18,.24-2.21,.31-2.22,.38-2.24,.44-2.25,.51-2.27,.57-2.27,.64-2.28,.7-2.28,.76-2.28,.83-2.28,.89-2.27,.95-2.26,1.01-2.25,1.22-2.55,1.29-2.51,1.36-2.47,1.42-2.42,1.48-2.37,1.54-2.32,1.6-2.26,1.65-2.2,1.23-1.56,1.26-1.51,1.27-1.47,1.29-1.43,1.31-1.38,1.33-1.33,1.34-1.29,1.36-1.24,1.37-1.19,1.38-1.14,1.4-1.09,1.4-1.03,1.41-.98,1.42-.92,1.43-.87,1.43-.81,1.43-.75,2.14-1.01,2.13-.87,2.11-.72,2.09-.58,2.06-.44,2.03-.29,1.34-.11,1.32-.05,1.3,.02,1.29,.08,1.26,.15,2.08,.4,1.64,.46,1.58,.58,1.53,.71,1.47,.82,1.4,.94,1.34,1.06,1.27,1.17,.61,.63,1.02,1.16,.96,1.24,.89,1.31,.83,1.39,.77,1.46,.71,1.52,.64,1.59,.58,1.66,.51,1.72,.45,1.78,.38,1.83,.31,1.89,.24,1.94,.17,1.99,.11,2.04,.04,2.09-.04,2.13-.1,2.16-.17,2.18-.24,2.21-.31,2.22-.38,2.24-.44,2.25-.51,2.27-.57,2.27-.64,2.28-.7,2.28-.76,2.28-.83,2.28-.89,2.27-.95,2.26-1.01,2.25-1.22,2.55-1.29,2.51-1.36,2.47-1.42,2.42-1.48,2.37-1.54,2.32-1.6,2.26-1.65,2.2-1.23,1.56-1.26,1.51-1.28,1.47-1.29,1.43-1.31,1.38-1.33,1.34-1.34,1.29-1.36,1.24-1.37,1.19-1.38,1.14-1.4,1.09-1.4,1.03-1.41,.98-1.42,.92-1.43,.87-1.44,.81-1.42,.75-2.14,1.01-2.12,.87-2.11,.72-2.09,.58-2.06,.44-2.03,.29-1.34,.11-1.32,.05h-.65Zm34.34-112.16l-1.29,.02-1.3,.08-1.32,.14-2.01,.34-2.04,.48-2.07,.62-2.09,.76-2.11,.9-1.41,.68-1.42,.74-1.42,.8-1.41,.86-1.41,.92-1.4,.97-1.39,1.02-1.38,1.08-1.37,1.13-1.36,1.18-1.35,1.23-1.34,1.28-1.32,1.33-1.3,1.37-1.29,1.42-1.27,1.46-1.25,1.51-1.23,1.55-1.64,2.19-1.59,2.25-1.53,2.31-1.48,2.36-1.41,2.41-1.35,2.46-1.29,2.5-1.22,2.54-1,2.24-.94,2.25-.88,2.26-.82,2.27-.76,2.27-.7,2.27-.63,2.27-.57,2.26-.5,2.25-.44,2.24-.38,2.23-.31,2.21-.24,2.19-.17,2.17-.1,2.14-.04,2.11,.08,3.09,.14,2,.21,1.95,.27,1.9,.34,1.84,.41,1.79,.47,1.73,.54,1.67,.6,1.6,.66,1.54,.73,1.47,.79,1.4,.85,1.33,.91,1.25,.97,1.18,1.41,1.47,1.26,1.12,1.32,1,1.39,.89,1.45,.78,1.5,.66,1.56,.54,1.62,.42,1.02,.2,1.23,.18,1.25,.11,1.27,.05,1.29-.02,1.3-.08,1.99-.24,2.02-.38,2.05-.53,2.07-.67,2.09-.81,1.41-.62,1.41-.68,1.41-.74,1.42-.8,1.41-.86,1.41-.92,1.4-.97,1.39-1.02,1.38-1.08,1.37-1.13,1.36-1.18,1.35-1.23,1.33-1.28,1.32-1.33,1.3-1.37,1.29-1.42,1.27-1.46,1.25-1.51,1.23-1.55,1.64-2.19,1.59-2.25,1.53-2.31,1.47-2.36,1.42-2.41,1.35-2.46,1.29-2.5,1.22-2.54,1-2.24,.94-2.25,.88-2.26,.82-2.27,.76-2.27,.7-2.27,.63-2.27,.57-2.26,.5-2.25,.44-2.24,.38-2.23,.31-2.21,.24-2.19,.17-2.17,.1-2.14,.04-2.11-.08-3.09-.14-2-.21-1.95-.27-1.9-.34-1.84-.41-1.79-.47-1.73-.54-1.66-.6-1.6-.66-1.54-.73-1.47-.79-1.4-.85-1.33-.91-1.25-.97-1.18-1.41-1.47-1.26-1.12-1.32-1-1.39-.89-1.45-.78-1.51-.66-1.56-.54-1.62-.42-1.02-.2-1.23-.18-1.25-.11-1.27-.05Z"/></g><g id="POLYLINE-12"><path class="cls-2" d="M150.75,145.26l-1.36-.06-1.99-.26-1.92-.47-1.84-.68-1.18-.57-1.31-.77-1.58-1.15-1.35-1.23-1.25-1.37-1.14-1.51-.63-.97-.78-1.37-.7-1.45-.63-1.53-.55-1.61-.48-1.68-.4-1.75-.32-1.82-.24-1.88-.16-1.94-.08-2v-1.02l.03-2.07,.12-2.1,.2-2.13,.28-2.15,.36-2.17,.44-2.18,.51-2.2,.59-2.2,.66-2.2,.73-2.2,.81-2.2,.88-2.19,.95-2.17,1.01-2.16,1.08-2.13,1.15-2.11,.84-1.46,.87-1.44,1.17-1.83,1.2-1.78,1.24-1.73,1.27-1.68,1.31-1.62,1.34-1.56,1.36-1.5,1.39-1.44,1.41-1.38,1.44-1.31,2.19-1.84,1.48-1.14,1.49-1.06,1.51-.99,1.52-.91,1.52-.83,1.52-.74,1.51-.65,1.5-.57,1.48-.48,1.47-.39,1.45-.3,1.43-.21,1.41-.12,1.39-.03,1.36,.06,1.99,.27,1.92,.47,1.84,.68,1.18,.57,1.31,.77,1.58,1.15,1.35,1.23,1.25,1.37,1.14,1.51,.63,.97,.78,1.37,.7,1.45,.63,1.53,.55,1.61,.48,1.68,.4,1.75,.32,1.82,.24,1.88,.16,1.94,.08,2v1.02l-.03,2.07-.12,2.1-.2,2.13-.28,2.15-.36,2.17-.44,2.18-.51,2.2-.59,2.2-.66,2.2-.73,2.2-.81,2.2-.88,2.19-.95,2.17-1.01,2.16-1.08,2.13-1.15,2.11-.84,1.46-.87,1.44-1.17,1.83-1.2,1.78-1.24,1.73-1.27,1.68-1.31,1.62-1.33,1.56-1.36,1.5-1.39,1.44-1.41,1.38-1.43,1.31-2.19,1.84-1.48,1.14-1.49,1.06-1.51,.99-1.52,.91-1.52,.83-1.52,.74-1.51,.65-1.5,.57-1.48,.48-1.47,.39-1.45,.3-1.43,.21-1.41,.12-1.39,.03Zm27.6-90.17l-1.36,.03-1.38,.12-1.4,.2-1.42,.29-1.44,.38-1.46,.47-1.47,.56-1.49,.64-1.5,.73-1.5,.82-1.5,.9-1.49,.98-1.48,1.05-1.46,1.13-.73,.59-1.44,1.23-1.42,1.3-1.4,1.37-1.38,1.43-1.35,1.49-1.33,1.55-1.3,1.61-1.27,1.67-1.23,1.72-1.2,1.77-1.16,1.82-.86,1.43-.84,1.46-1.14,2.1-1.07,2.12-1.01,2.14-.94,2.16-.87,2.17-.8,2.18-.73,2.19-.66,2.19-.58,2.19-.51,2.18-.43,2.17-.36,2.16-.39,3.19-.16,2.1-.08,2.07v1.02l.03,2.01,.12,1.95,.2,1.89,.28,1.83,.36,1.76,.43,1.69,.51,1.62,.58,1.54,.65,1.46,.72,1.38,1.22,1.92,1.13,1.45,1.24,1.31,1.34,1.16,.85,.63,1.25,.78,1.58,.79,1.79,.66,1.87,.46,1.28,.19,1.32,.1,.67,.02,1.36-.03,1.38-.12,1.4-.2,1.42-.29,1.44-.38,1.46-.47,1.48-.56,1.49-.65,1.5-.73,1.5-.82,1.5-.9,1.49-.98,1.48-1.05,1.46-1.13,.73-.59,1.44-1.24,1.42-1.3,1.4-1.37,1.38-1.43,1.35-1.49,1.33-1.55,1.3-1.61,1.27-1.67,1.23-1.72,1.2-1.77,1.16-1.82,.87-1.43,.84-1.46,1.14-2.1,1.07-2.12,1.01-2.14,.94-2.16,.87-2.17,.8-2.18,.73-2.19,.66-2.19,.58-2.19,.51-2.18,.43-2.17,.36-2.16,.39-3.19,.16-2.1,.08-2.07v-1.02l-.03-2.01-.12-1.95-.2-1.89-.28-1.83-.36-1.76-.43-1.69-.51-1.62-.58-1.54-.65-1.46-.73-1.38-1.22-1.92-1.13-1.45-1.24-1.31-1.34-1.16-.85-.63-1.25-.79-1.58-.79-1.79-.66-1.87-.46-1.29-.19-1.32-.11-.67-.02Z"/></g></g><g><g id="POLYLINE-13"><path class="cls-1" d="M223.57,230.01l-2.11-.03-2.14-.1-2.16-.16-2.18-.23-2.2-.29-2.22-.35-2.23-.42-2.24-.48-2.25-.54-2.26-.6-2.26-.66-2.27-.72-2.27-.78-2.26-.83-2.26-.89-2.25-.95-3.32-1.52-3.27-1.63-3.2-1.73-3.13-1.83-3.05-1.93-1.49-1-1.47-1.02-1.44-1.04-1.42-1.06-1.39-1.08-1.37-1.11-1.44-1.21-1.4-1.23-1.36-1.25-1.32-1.26-1.28-1.28-1.24-1.29-1.2-1.3-1.15-1.31-1.11-1.33-1.06-1.33-1.02-1.34-.97-1.35-.92-1.36-.87-1.36-.82-1.37-.77-1.37-.72-1.37-.67-1.37-.61-1.37-.56-1.36-.95-2.7-.57-2-.44-1.98-.31-1.96-.19-1.93-.06-1.9,.07-1.87,.2-1.78,.3-1.65,.41-1.6,.52-1.55,.63-1.5,.73-1.45,.84-1.4,.94-1.34,1.04-1.28,1.15-1.22,1.25-1.16,1.04-.86,1.26-.93,1.33-.87,1.39-.81,1.46-.75,1.52-.69,1.58-.63,1.64-.57,1.7-.51,1.76-.45,1.81-.38,1.86-.32,1.91-.26,.97-.11,1.98-.16,2.03-.1,2.07-.03,2.11,.03,2.14,.1,2.16,.16,2.18,.23,2.2,.29,2.22,.35,2.23,.42,2.24,.48,2.25,.54,2.26,.6,2.26,.66,2.26,.72,2.27,.78,2.26,.83,2.26,.89,2.25,.95,3.32,1.52,3.27,1.63,3.2,1.73,3.13,1.83,3.05,1.93,1.49,1,2.91,2.07,1.42,1.06,1.39,1.09,1.37,1.11,1.44,1.21,1.4,1.23,1.37,1.25,1.32,1.26,1.28,1.28,1.24,1.29,1.2,1.3,1.15,1.31,1.11,1.33,1.06,1.33,1.02,1.34,.97,1.35,.92,1.36,.87,1.36,.82,1.37,.77,1.37,.72,1.37,.67,1.37,.61,1.36,.56,1.36,.95,2.7,.57,2,.44,1.98,.31,1.96,.19,1.93,.06,1.9-.07,1.87-.2,1.78-.3,1.65-.41,1.6-.52,1.55-.62,1.5-.73,1.45-.84,1.4-.94,1.34-1.04,1.28-1.14,1.22-1.25,1.16-1.04,.86-1.26,.93-1.33,.87-1.39,.81-1.46,.75-1.52,.69-1.58,.63-1.64,.57-1.7,.51-1.76,.45-1.81,.38-1.86,.32-1.91,.26-.98,.11-1.98,.16-2.03,.1-2.07,.03Zm-82.45-64.92l-.16,1.81-.03,1.22,.06,1.87,.18,1.9,.31,1.93,.43,1.95,.56,1.98,.44,1.33,.5,1.34,.55,1.34,.61,1.35,.66,1.36,.72,1.36,.77,1.36,.82,1.36,.87,1.35,.92,1.35,.96,1.34,1.01,1.33,1.06,1.33,1.1,1.32,1.15,1.3,1.19,1.29,1.23,1.28,1.27,1.27,1.32,1.25,1.36,1.24,1.4,1.23,1.43,1.21,1.36,1.1,1.39,1.08,2.85,2.1,2.94,2.01,3.03,1.92,3.11,1.83,3.19,1.72,3.25,1.62,3.31,1.51,2.24,.94,2.25,.89,2.25,.83,2.25,.77,2.25,.71,2.25,.65,2.25,.6,2.24,.53,2.23,.47,2.22,.41,2.2,.35,2.19,.29,2.17,.22,2.15,.16,2.12,.1,2.09,.03,2.06-.03,2.01-.1,2.93-.27,1.89-.26,1.84-.32,1.79-.38,1.74-.44,1.68-.5,1.62-.56,1.56-.62,1.5-.68,1.44-.74,1.37-.8,1.3-.85,1.23-.91,1.44-1.21,1.19-1.16,1.09-1.22,.99-1.27,.89-1.33,.78-1.38,.68-1.44,.58-1.49,.47-1.54,.36-1.58,.26-1.63,.16-1.81,.03-1.22-.06-1.87-.18-1.9-.31-1.93-.43-1.95-.56-1.98-.44-1.33-.5-1.34-.55-1.34-.61-1.35-.66-1.36-.71-1.36-.77-1.36-.82-1.36-.87-1.35-.92-1.35-.96-1.34-1.01-1.33-1.06-1.32-1.1-1.32-1.15-1.31-1.19-1.29-1.23-1.28-1.28-1.27-1.32-1.26-1.36-1.24-1.4-1.22-1.44-1.21-1.36-1.1-1.39-1.08-2.85-2.1-1.46-1.02-1.48-.99-3.03-1.92-3.11-1.82-3.19-1.73-3.25-1.62-3.31-1.51-2.24-.95-2.25-.89-2.25-.83-2.25-.77-2.25-.71-2.25-.66-2.25-.6-2.24-.54-2.23-.47-2.22-.41-2.2-.35-2.19-.29-2.17-.22-2.15-.16-2.12-.1-2.09-.03-2.06,.03-2.01,.1-2.93,.27-1.89,.26-1.85,.32-1.79,.38-1.74,.44-1.68,.5-1.62,.56-1.56,.62-1.5,.68-1.44,.74-1.37,.8-1.3,.85-1.23,.91-1.44,1.21-1.19,1.16-1.09,1.21-.99,1.27-.89,1.33-.78,1.38-.68,1.44-.58,1.49-.47,1.54-.37,1.58-.26,1.63Z"/></g><g id="POLYLINE-14"><path class="cls-1" d="M234.82,229.2l-2.05-.03-2.07-.07-2.09-.12-2.11-.17-2.13-.22-2.14-.27-2.16-.32-2.17-.37-2.18-.42-2.19-.47-2.2-.51-2.21-.56-2.21-.61-2.22-.65-2.22-.7-2.22-.75-3.61-1.31-3.59-1.43-3.56-1.54-3.52-1.65-3.73-1.88-3.66-1.99-3.58-2.1-3.49-2.2-3.39-2.29-3.29-2.39-3.18-2.47-3.07-2.55-1.61-1.42-1.57-1.43-1.53-1.45-1.48-1.47-1.44-1.48-1.39-1.5-1.35-1.51-1.3-1.52-1.25-1.54-1.2-1.54-1.15-1.55-1.1-1.56-1.05-1.56-.99-1.57-.94-1.57-.89-1.58-.83-1.57-.77-1.57-.71-1.57-.66-1.56-.6-1.56-.54-1.55-.48-1.55-.61-2.31-.47-2.28-.33-2.25-.2-2.22-.06-2.18,.08-2.14,.19-1.93,.31-1.89,.43-1.84,.54-1.79,.66-1.74,.77-1.69,.88-1.63,.99-1.58,1.1-1.52,1.21-1.45,1.29-1.36,1.32-1.23,1.41-1.17,1.49-1.11,1.04-.7,1.08-.67,1.82-1.03,1.44-.73,2.25-1,2.35-.9,.81-.27,1.64-.51,1.69-.47,1.73-.42,1.77-.37,1.81-.32,1.85-.27,1.89-.22,1.92-.18,1.96-.12,1.99-.08,2.02-.03,2.05,.03,2.07,.08,2.09,.12,2.11,.18,2.13,.22,2.14,.27,2.16,.32,2.17,.37,2.18,.42,2.19,.46,2.2,.51,2.21,.56,2.21,.61,2.22,.65,2.22,.7,2.22,.75,3.61,1.31,3.59,1.43,3.56,1.54,3.52,1.65,3.73,1.88,3.66,1.99,3.58,2.1,3.49,2.2,3.39,2.29,3.29,2.39,3.18,2.47,3.07,2.55,1.61,1.42,1.57,1.43,1.53,1.45,1.48,1.47,1.44,1.48,1.39,1.5,1.35,1.51,1.3,1.53,1.25,1.53,1.2,1.54,1.15,1.55,1.1,1.56,1.05,1.56,.99,1.57,.94,1.57,.89,1.57,.83,1.57,.77,1.57,.71,1.57,.66,1.57,.6,1.56,.54,1.55,.48,1.55,.61,2.31,.47,2.28,.34,2.25,.2,2.22,.06,1.46v.72l-.03,1.43-.16,2-.27,1.9-.39,1.86-.5,1.81-.62,1.76-.73,1.71-.84,1.65-.95,1.6-1.07,1.54-1.17,1.48-1.28,1.41-1.29,1.25-1.38,1.19-1.46,1.13-1.55,1.07-1.08,.67-1.82,1.03-1.44,.73-2.25,1-2.35,.9-.81,.27-1.64,.51-1.69,.47-1.73,.42-1.77,.37-1.81,.32-1.85,.27-1.89,.22-1.92,.17-1.96,.12-1.99,.08-2.02,.03Zm-96.05-54.55l.88,1.56,.93,1.56,.99,1.56,1.04,1.55,1.09,1.55,1.14,1.54,1.2,1.54,1.25,1.53,1.3,1.52,1.34,1.5,1.39,1.49,1.43,1.48,1.48,1.46,1.52,1.44,1.56,1.43,1.6,1.41,3.05,2.54,3.17,2.46,3.28,2.38,3.38,2.29,3.48,2.19,3.56,2.09,3.64,1.99,3.71,1.88,3.51,1.64,3.55,1.53,3.58,1.42,3.6,1.31,2.21,.74,2.21,.7,2.21,.65,2.2,.6,2.2,.56,2.19,.51,2.18,.46,2.17,.42,2.16,.37,2.15,.32,2.13,.27,2.12,.22,2.1,.17,2.08,.12,2.06,.07,2.04,.03,2.01-.03,1.98-.07,1.94-.12,1.91-.17,1.87-.22,1.83-.27,1.8-.32,1.76-.37,1.71-.41,1.67-.46,2.43-.78,2.33-.89,2.22-.99,1.42-.72,.69-.38,1.1-.64,2.09-1.36,1.47-1.09,1.39-1.15,1.3-1.21,1.27-1.34,1.19-1.43,1.08-1.49,.97-1.55,.86-1.6,.75-1.66,.64-1.71,.53-1.76,.42-1.81,.31-1.86,.19-1.9,.08-2.11-.06-2.15-.19-2.19-.33-2.22-.47-2.25-.19-.76-.42-1.52-.48-1.53-.53-1.54-.59-1.54-.65-1.55-.71-1.55-.77-1.56-.82-1.56-.88-1.56-.93-1.56-.99-1.56-1.04-1.55-1.09-1.55-1.15-1.54-1.2-1.54-1.25-1.53-1.3-1.52-1.34-1.5-1.39-1.49-1.43-1.48-1.48-1.46-1.52-1.44-1.56-1.43-1.6-1.41-3.05-2.54-3.17-2.46-3.28-2.38-3.38-2.29-3.47-2.19-3.56-2.09-3.64-1.99-3.71-1.88-3.51-1.64-3.55-1.53-3.58-1.42-3.6-1.31-2.21-.74-2.21-.7-2.21-.65-2.2-.61-2.2-.56-2.19-.51-2.18-.46-2.17-.42-2.16-.37-2.15-.32-2.13-.27-2.12-.22-2.1-.17-2.08-.12-2.06-.08-2.04-.03-2.01,.03-1.98,.08-1.94,.12-1.91,.17-1.87,.22-1.83,.27-1.8,.32-1.76,.37-1.72,.42-1.67,.46-2.43,.78-2.33,.89-2.22,.99-2.11,1.09-1.1,.64-2.09,1.36-1.47,1.09-1.38,1.15-1.3,1.21-1.26,1.34-1.19,1.43-1.08,1.49-.97,1.55-.86,1.6-.75,1.66-.64,1.71-.53,1.76-.42,1.81-.31,1.86-.19,1.9-.08,2.11,.06,2.15,.2,2.19,.33,2.22,.47,2.25,.19,.76,.42,1.52,.48,1.53,.53,1.54,.59,1.54,.65,1.55,.71,1.56,.77,1.56,.82,1.56Z"/></g><g id="POLYLINE-15"><path class="cls-1" d="M244.14,224.85l-2.03-.02-2.05-.07-2.07-.11-2.08-.15-2.1-.2-2.11-.24-2.13-.28-2.14-.32-2.15-.37-2.16-.41-2.17-.45-2.18-.49-4.38-1.11-4.4-1.27-2.54-.81-2.53-.86-2.53-.91-2.51-.96-2.5-1-2.49-1.05-2.47-1.1-2.45-1.15-2.43-1.19-2.41-1.23-2.39-1.28-2.36-1.32-2.34-1.36-2.31-1.4-2.28-1.44-2.25-1.48-4.02-2.81-1.96-1.45-1.92-1.48-2.24-1.79-2.18-1.82-2.12-1.85-2.06-1.88-2-1.91-1.93-1.93-1.86-1.95-1.8-1.98-1.72-2-1.65-2.01-1.57-2.02-1.49-2.04-1.41-2.04-1.33-2.05-1.25-2.06-1.17-2.06-1.08-2.06-1.46-3.09-.86-2.05-.77-2.04-.68-2.03-.59-2.02-.5-2.01-.41-1.99-.31-1.97-.22-1.95-.13-1.93-.03-1.9,.06-1.87,.15-1.84,.25-1.81,.31-1.64,.35-1.47,.42-1.44,.48-1.42,.57-1.45,.67-1.47,.75-1.43,.82-1.39,.89-1.35,.97-1.31,1.04-1.26,1.11-1.22,1.18-1.17,1.25-1.13,1.31-1.08,1.38-1.04,1.44-.99,1.51-.94,1.57-.89,1.64-.84,.84-.4,1.49-.66,1.53-.62,1.57-.58,1.61-.53,1.65-.49,1.69-.45,1.72-.41,1.76-.37,1.79-.32,1.82-.28,1.86-.24,1.89-.2,1.92-.15,1.95-.11,1.97-.07,2-.02,2.03,.02,2.05,.07,2.07,.11,2.08,.15,2.1,.19,2.11,.24,2.13,.28,2.14,.32,2.15,.37,2.16,.41,2.17,.45,2.18,.49,4.38,1.11,4.4,1.27,2.54,.81,2.53,.86,2.52,.91,2.51,.96,2.5,1,2.49,1.05,2.47,1.1,2.45,1.14,2.43,1.19,2.41,1.23,2.39,1.28,2.36,1.32,2.34,1.36,2.31,1.4,2.28,1.44,2.25,1.48,4.02,2.81,1.96,1.45,1.92,1.48,2.24,1.79,2.18,1.82,2.12,1.85,2.06,1.88,1.99,1.91,1.93,1.93,1.86,1.95,1.79,1.98,1.72,2,1.65,2.01,1.57,2.02,1.49,2.04,1.41,2.04,1.33,2.05,1.25,2.06,1.17,2.06,1.08,2.06,1.46,3.09,.86,2.05,.77,2.04,.68,2.03,.59,2.02,.5,2.01,.41,1.99,.32,1.97,.22,1.95,.13,1.93,.03,1.9-.06,1.87-.15,1.84-.25,1.81-.31,1.64-.35,1.47-.42,1.44-.48,1.42-.57,1.45-.67,1.47-.75,1.43-.82,1.39-.89,1.35-.97,1.31-1.04,1.26-1.11,1.22-1.18,1.17-1.25,1.13-1.31,1.08-1.38,1.04-1.44,.99-1.51,.94-1.57,.89-1.64,.84-.84,.4-1.49,.66-1.53,.62-1.57,.58-1.61,.53-1.65,.49-1.69,.45-1.72,.41-1.76,.37-1.79,.32-1.82,.28-1.86,.24-1.89,.2-1.92,.15-1.95,.11-1.98,.07-2,.02Zm-114.57-92.52l-.29,1.77-.2,1.8-.1,1.83-.02,.93,.03,1.88,.13,1.9,.22,1.93,.31,1.95,.4,1.97,.5,1.99,.59,2,.68,2.01,.77,2.03,.85,2.04,.46,1.02,.99,2.05,1.07,2.05,1.16,2.05,1.24,2.05,1.32,2.04,1.4,2.03,1.48,2.03,1.56,2.01,1.64,2,1.71,1.99,1.79,1.97,1.85,1.95,1.92,1.92,1.99,1.9,2.05,1.87,2.11,1.84,2.17,1.81,2.23,1.78,1.92,1.47,1.95,1.44,4.01,2.8,2.24,1.48,2.27,1.44,2.3,1.4,2.33,1.36,2.36,1.32,2.38,1.27,2.4,1.23,2.42,1.19,2.44,1.14,2.46,1.1,2.48,1.05,2.49,1,2.5,.96,2.52,.9,2.52,.86,2.53,.8,4.39,1.27,4.36,1.1,2.17,.49,2.16,.45,2.15,.41,2.14,.36,2.13,.32,2.12,.28,2.1,.24,2.09,.19,2.07,.15,2.05,.11,2.04,.07,2.02,.02,1.99-.02,1.97-.07,1.94-.11,1.91-.15,1.88-.2,1.84-.24,1.81-.28,1.78-.32,1.74-.36,1.71-.41,1.67-.45,1.63-.49,1.6-.53,1.56-.57,1.52-.61,2.31-1.05,1.62-.83,1.56-.88,1.49-.92,1.43-.97,1.36-1.02,1.29-1.07,1.23-1.11,1.16-1.16,1.09-1.2,1.02-1.24,.95-1.29,.88-1.33,.81-1.37,.74-1.41,.66-1.45,.57-1.42,.48-1.39,.41-1.42,.35-1.45,.31-1.61,.24-1.79,.15-1.82,.06-1.85-.03-1.87-.13-1.9-.22-1.93-.31-1.95-.4-1.97-.5-1.99-.59-2-.68-2.01-.77-2.03-.85-2.04-.46-1.02-.99-2.05-1.07-2.05-1.16-2.05-1.24-2.04-1.32-2.04-1.4-2.03-1.48-2.02-1.56-2.01-1.64-2-1.71-1.99-1.79-1.97-1.85-1.95-1.92-1.92-1.99-1.9-2.05-1.87-2.11-1.84-2.17-1.81-2.23-1.78-1.92-1.47-1.95-1.44-4.01-2.8-2.24-1.48-2.27-1.44-2.3-1.4-2.33-1.36-2.36-1.31-2.38-1.27-2.4-1.23-2.42-1.19-2.44-1.14-2.46-1.1-2.48-1.05-2.49-1-2.51-.95-2.52-.9-2.53-.86-2.53-.8-4.38-1.27-4.36-1.1-2.17-.49-2.16-.45-2.15-.41-2.14-.37-2.13-.32-2.12-.28-2.1-.24-2.09-.19-2.07-.15-2.05-.11-2.04-.07-2.02-.02-1.99,.02-1.96,.07-1.94,.11-1.91,.15-1.88,.19-1.84,.24-1.81,.28-1.78,.32-1.74,.36-1.71,.4-1.67,.45-1.63,.49-1.6,.53-1.56,.57-1.52,.61-2.31,1.04-1.62,.83-1.56,.88-1.49,.93-1.43,.97-1.36,1.02-1.29,1.07-1.23,1.11-1.16,1.16-1.09,1.2-1.02,1.24-.95,1.29-.88,1.33-.81,1.37-.74,1.41-.66,1.45-.57,1.42-.48,1.39-.41,1.42-.35,1.45-.15,.73Z"/></g><g id="POLYLINE-16"><path class="cls-1" d="M252.14,218.06l-2.02-.02-2.04-.06-2.05-.1-2.07-.14-2.08-.18-2.1-.22-2.11-.26-2.13-.3-4.28-.72-4.32-.87-4.35-1.03-4.38-1.18-2.83-.84-2.82-.9-2.82-.96-2.81-1.02-2.8-1.08-2.79-1.13-2.78-1.19-2.76-1.25-3.9-1.87-3.84-1.97-3.79-2.08-3.72-2.17-4.14-2.58-4.03-2.69-3.91-2.8-3.79-2.9-3.64-2.99-3.5-3.07-1.69-1.56-1.65-1.58-1.61-1.59-1.56-1.61-2.73-2.97-1.31-1.5-1.27-1.51-1.46-1.81-1.4-1.82-1.34-1.82-1.29-1.83-1.23-1.84-1.16-1.84-1.1-1.85-1.04-1.85-.97-1.85-.91-1.85-.84-1.84-.78-1.84-.71-1.83-.64-1.83-.58-1.82-.51-1.81-.38-1.51-.32-1.5-.28-1.5-.33-2.29-.22-2.41-.09-2.37,.05-2.33,.18-2.29,.32-2.24,.45-2.19,.59-2.14,.46-1.39,.52-1.37,.58-1.34,.98-1.96,1.01-1.74,1.07-1.61,1.17-1.56,1.26-1.5,1.36-1.44,.96-.93,1.41-1.25,1.48-1.2,1.56-1.14,1.63-1.08,1.71-1.02,1.78-.96,1.85-.9,1.92-.84,1.53-.61,1.57-.57,1.6-.53,1.64-.5,1.67-.46,1.71-.42,1.74-.38,1.77-.34,1.8-.3,1.83-.26,1.86-.22,1.89-.18,1.92-.14,1.94-.1,1.97-.06,1.99-.02,2.02,.02,2.03,.06,2.05,.1,2.07,.14,2.08,.18,2.1,.22,2.11,.26,2.13,.3,4.28,.72,4.32,.87,4.35,1.03,4.38,1.18,2.83,.84,2.82,.9,2.82,.96,2.81,1.02,2.8,1.08,2.79,1.14,2.77,1.19,2.76,1.25,3.9,1.87,3.84,1.97,3.79,2.08,3.72,2.17,4.14,2.58,4.03,2.69,3.91,2.8,3.79,2.9,3.64,2.99,3.5,3.07,1.69,1.56,1.65,1.58,1.61,1.59,1.56,1.61,2.73,2.97,1.31,1.5,1.27,1.51,1.46,1.81,1.4,1.81,1.34,1.83,1.29,1.83,1.23,1.84,1.16,1.84,1.1,1.85,1.04,1.85,.97,1.85,.91,1.85,.84,1.84,.78,1.84,.71,1.83,.64,1.83,.58,1.82,.51,1.81,.38,1.51,.32,1.5,.28,1.49,.33,2.3,.22,2.41,.09,2.37-.05,2.33-.18,2.29-.32,2.24-.45,2.19-.59,2.14-.46,1.39-.52,1.37-.58,1.34-.64,1.31-1.02,1.84-1.04,1.63-1.13,1.58-1.23,1.52-1.32,1.46-1.42,1.4-1.41,1.25-1.49,1.2-1.56,1.14-1.63,1.08-1.71,1.02-1.78,.96-1.85,.91-1.92,.84-1.53,.61-1.57,.57-1.6,.53-1.64,.5-1.67,.46-1.71,.42-1.74,.38-1.77,.34-1.8,.3-1.83,.26-1.86,.22-1.89,.18-1.92,.14-1.94,.1-1.97,.06-1.99,.02Zm-123.1-86.28l.23,1.47,.27,1.48,.32,1.49,.37,1.5,.5,1.79,.57,1.8,.64,1.81,.71,1.82,.77,1.83,.84,1.83,.9,1.83,.97,1.84,1.03,1.83,1.1,1.84,1.16,1.83,1.22,1.83,1.28,1.82,1.34,1.81,1.4,1.81,1.45,1.8,1.27,1.5,1.3,1.49,2.72,2.96,1.56,1.6,1.6,1.59,1.64,1.57,1.68,1.55,3.48,3.06,3.63,2.97,3.77,2.89,3.9,2.79,4.02,2.68,4.13,2.58,3.71,2.17,3.77,2.07,3.83,1.97,3.89,1.87,2.75,1.24,2.77,1.19,2.78,1.13,2.79,1.07,2.8,1.02,2.81,.96,2.81,.9,2.82,.84,4.36,1.18,4.34,1.02,4.31,.87,4.27,.71,2.12,.3,2.1,.26,2.09,.22,2.08,.18,2.06,.14,2.04,.1,2.02,.06,2.01,.02,1.98-.02,1.96-.06,1.93-.1,1.9-.14,1.88-.18,1.85-.22,1.82-.26,1.79-.3,1.76-.34,1.73-.38,1.69-.42,1.66-.45,1.62-.49,1.59-.53,1.55-.57,2.47-1.02,1.87-.87,1.79-.92,1.72-.98,1.65-1.04,1.58-1.1,1.5-1.15,1.43-1.21,1.63-1.54,1.34-1.42,1.24-1.48,1.15-1.53,1.05-1.59,1-1.72,.66-1.28,.6-1.31,.54-1.33,.49-1.36,.43-1.39,.37-1.41,.44-2.16,.22-1.47,.22-2.24,.09-2.29v-.77l-.08-2.34-.22-2.38-.1-.8-.22-1.47-.27-1.48-.32-1.49-.37-1.5-.5-1.79-.57-1.8-.64-1.81-.71-1.82-.77-1.83-.84-1.83-.9-1.83-.97-1.84-1.03-1.84-1.1-1.83-1.16-1.83-1.22-1.83-1.28-1.82-1.34-1.82-1.4-1.81-1.46-1.8-1.27-1.5-1.3-1.49-2.72-2.96-1.56-1.6-1.6-1.59-1.64-1.57-1.68-1.55-3.48-3.06-3.63-2.98-3.77-2.89-3.9-2.79-4.02-2.68-4.13-2.58-3.71-2.17-3.77-2.07-3.83-1.97-3.89-1.86-2.75-1.24-2.77-1.19-2.78-1.13-2.79-1.07-2.8-1.02-2.81-.96-2.81-.9-2.82-.84-4.36-1.18-4.34-1.02-4.31-.87-4.27-.71-2.12-.3-2.1-.26-2.09-.22-2.08-.18-2.06-.14-2.04-.1-2.02-.06-2.01-.02-1.98,.02-1.96,.06-1.93,.1-1.91,.14-1.88,.18-1.85,.22-1.82,.26-1.79,.3-1.76,.34-1.73,.38-1.69,.42-1.66,.45-1.62,.49-1.59,.53-1.55,.57-2.47,1.01-1.87,.87-1.79,.92-1.72,.98-1.65,1.04-1.58,1.1-1.5,1.15-1.43,1.21-1.63,1.54-1.34,1.42-1.24,1.48-1.15,1.53-1.05,1.59-1,1.72-.96,1.93-.84,1.99-.49,1.36-.43,1.39-.37,1.41-.44,2.16-.22,1.47-.22,2.24-.09,2.29v.77l.08,2.34,.22,2.38,.1,.8Z"/></g><g id="POLYLINE-17"><path class="cls-1" d="M259.08,209.33l-2.01-.02-2.03-.06-2.05-.1-2.06-.14-2.08-.17-2.09-.21-4.22-.54-4.27-.69-4.31-.84-4.34-.99-4.36-1.13-4.76-1.4-4.74-1.56-4.72-1.72-4.69-1.88-4.65-2.03-4.6-2.18-4.53-2.32-4.46-2.46-4.47-2.65-4.36-2.77-4.24-2.89-4.11-3.01-3.97-3.11-3.81-3.2-1.84-1.63-1.8-1.65-1.76-1.67-1.71-1.69-1.6-1.63-1.55-1.65-1.51-1.66-1.46-1.67-1.41-1.68-1.37-1.69-1.32-1.7-1.27-1.71-1.73-2.46-1.62-2.47-1.51-2.48-1.41-2.48-1.3-2.48-1.18-2.48-1.07-2.47-.95-2.47-.59-1.71-.54-1.71-.48-1.7-.42-1.69-.36-1.68-.3-1.67-.25-1.65-.26-2.49-.1-1.69-.03-1.67,.03-1.65,.1-1.63,.16-1.61,.23-1.59,.29-1.56,.35-1.54,.42-1.51,.48-1.48,.55-1.46,.61-1.42,.67-1.4,.73-1.36,.8-1.33,.85-1.29,.9-1.24,.95-1.2,1.01-1.17,1.06-1.13,1.12-1.09,1.17-1.06,1.86-1.51,1.97-1.43,2.09-1.34,1.45-.84,1.5-.8,1.55-.76,1.6-.72,1.64-.68,1.55-.59,1.58-.55,1.62-.51,1.65-.48,1.68-.44,1.72-.4,1.75-.36,1.78-.33,1.81-.29,1.83-.25,1.86-.21,1.89-.17,1.92-.13,1.94-.1,1.97-.06,1.99-.02,2.01,.02,2.03,.06,2.05,.1,2.06,.14,2.08,.17,2.09,.21,4.22,.54,4.27,.69,4.31,.84,4.34,.99,4.36,1.13,4.76,1.4,4.74,1.56,4.72,1.72,4.69,1.88,4.65,2.03,4.6,2.18,4.53,2.32,4.46,2.46,4.47,2.65,4.36,2.77,4.24,2.89,4.11,3,3.97,3.11,3.81,3.2,1.84,1.63,1.8,1.65,1.76,1.67,1.71,1.69,1.6,1.63,1.55,1.65,1.51,1.66,1.46,1.67,1.41,1.68,1.37,1.69,1.32,1.7,1.27,1.71,1.73,2.46,1.62,2.47,1.52,2.48,1.41,2.48,1.3,2.48,1.18,2.48,1.07,2.47,.95,2.46,.6,1.71,.54,1.71,.48,1.7,.42,1.69,.36,1.68,.31,1.67,.25,1.65,.26,2.49,.1,1.69,.03,1.67-.03,1.65-.1,1.63-.16,1.61-.23,1.59-.29,1.56-.36,1.54-.42,1.51-.48,1.48-.55,1.46-.61,1.42-.67,1.4-.74,1.36-.8,1.33-.85,1.29-.9,1.24-.95,1.2-1.01,1.17-1.06,1.13-1.12,1.09-1.17,1.06-1.86,1.51-1.97,1.43-2.09,1.34-1.45,.84-1.5,.8-1.55,.76-1.6,.72-1.64,.68-1.55,.59-1.58,.55-1.62,.51-1.65,.48-1.68,.44-1.72,.4-1.75,.36-1.78,.33-1.81,.29-1.83,.25-1.86,.21-1.89,.17-1.92,.13-1.94,.1-1.97,.06-1.99,.02Zm-124.82-78.05l.95,2.44,1.06,2.45,1.17,2.46,1.29,2.46,1.4,2.47,1.51,2.46,1.62,2.46,1.72,2.45,1.26,1.7,1.31,1.7,1.36,1.69,1.41,1.68,1.45,1.67,1.5,1.65,1.54,1.64,1.59,1.63,1.71,1.68,1.75,1.67,1.79,1.65,1.84,1.63,3.8,3.19,3.95,3.1,4.1,3,4.23,2.88,4.35,2.76,4.46,2.64,4.45,2.45,4.52,2.31,4.58,2.17,4.63,2.02,4.67,1.87,4.71,1.72,4.73,1.56,4.74,1.39,4.35,1.13,4.32,.98,4.29,.83,4.25,.68,4.2,.54,2.08,.21,2.07,.17,2.05,.13,2.04,.1,2.02,.06,2,.02,1.98-.02,1.96-.06,1.93-.1,1.91-.13,1.88-.17,1.85-.21,1.82-.25,1.79-.29,1.77-.32,1.73-.36,1.7-.4,1.67-.44,1.64-.47,1.61-.51,1.57-.55,1.54-.58,1.63-.68,1.58-.71,1.54-.76,2.21-1.21,2.1-1.3,1.99-1.38,1.87-1.47,1.75-1.55,1.1-1.08,1.05-1.12,1-1.15,.94-1.18,.88-1.22,.84-1.27,.79-1.31,.72-1.34,.66-1.38,.6-1.4,.54-1.43,.48-1.46,.41-1.49,.35-1.52,.29-1.54,.22-1.56,.16-1.59,.09-1.61,.03-1.63-.03-1.65-.1-1.67-.07-.84-.18-1.62-.24-1.64-.3-1.65-.36-1.66-.42-1.67-.48-1.68-.53-1.69-1.05-2.92-1-2.45-1.12-2.46-1.23-2.46-.66-1.23-1.4-2.47-1.51-2.46-1.62-2.46-1.72-2.45-1.26-1.7-1.31-1.69-1.36-1.69-1.41-1.68-1.46-1.67-1.5-1.65-1.54-1.64-1.59-1.63-1.71-1.68-1.75-1.67-1.79-1.65-1.84-1.63-3.8-3.19-3.95-3.1-4.1-3-4.23-2.88-4.35-2.76-4.46-2.64-4.45-2.45-4.52-2.31-4.58-2.17-4.63-2.02-4.67-1.87-4.71-1.72-4.73-1.56-4.74-1.39-4.35-1.13-4.32-.98-4.29-.84-4.25-.68-4.21-.53-2.08-.21-2.07-.17-2.05-.13-2.04-.09-2.02-.06-2-.02-1.98,.02-1.96,.06-1.93,.1-1.91,.13-1.88,.17-1.85,.21-1.82,.25-1.79,.29-1.76,.32-1.74,.36-1.7,.4-1.67,.44-1.64,.47-1.61,.51-1.57,.55-1.54,.58-1.63,.68-1.58,.71-1.54,.76-2.21,1.21-2.1,1.3-1.99,1.38-1.87,1.47-1.75,1.55-1.63,1.63-1.02,1.13-.97,1.17-.91,1.2-.86,1.24-.82,1.3-.75,1.33-.69,1.36-.63,1.39-.57,1.42-.51,1.45-.45,1.48-.38,1.5-.32,1.53-.25,1.55-.19,1.58-.13,1.6-.06,1.62v.82l.03,1.65,.1,1.67,.07,.84,.18,1.62,.24,1.64,.3,1.65,.36,1.66,.42,1.67,.48,1.68,.53,1.69,.59,1.7Z"/></g><g id="POLYLINE-18"><path class="cls-1" d="M265.07,198.86l-2.01-.02-2.03-.06-2.04-.1-2.06-.13-4.16-.38-4.22-.53-4.26-.68-4.3-.83-4.33-.98-4.36-1.12-4.72-1.37-4.72-1.54-4.7-1.69-4.68-1.85-4.64-2-4.58-2.14-4.52-2.28-4.45-2.42-4.37-2.55-4.26-2.66-4.15-2.77-4.03-2.88-3.9-2.97-3.76-3.07-3.61-3.15-3.46-3.23-2.93-2.93-2.79-2.98-2.65-3.02-1.27-1.52-1.23-1.53-1.19-1.54-1.15-1.54-1.11-1.55-1.07-1.55-1.03-1.56-.98-1.56-1.4-2.34-.93-1.66-1.27-2.43-.76-1.57-.72-1.56-.67-1.56-.63-1.56-.58-1.55-.53-1.55-.49-1.54-.44-1.53-.39-1.53-.35-1.52-.3-1.51-.25-1.5-.21-1.49-.16-1.48-.15-2.29-.03-1.62,.06-2.4,.2-2.35,.34-2.3,.3-1.51,.36-1.48,.65-2.18,.51-1.42,.57-1.39,.62-1.37,.68-1.34,.74-1.31,.8-1.28,.86-1.25,.91-1.22,1.47-1.76,1.05-1.13,1.1-1.1,1.16-1.06,1.83-1.52,1.95-1.44,2.06-1.35,.71-.43,1.46-.83,1.5-.79,1.55-.75,1.6-.71,1.64-.67,1.55-.58,1.59-.54,1.62-.51,1.65-.47,1.69-.43,1.72-.4,1.75-.36,1.78-.32,1.81-.28,1.84-.25,1.86-.21,1.89-.17,1.92-.13,1.94-.1,1.97-.06,1.99-.02,2.01,.02,2.03,.06,2.04,.1,2.06,.13,4.16,.38,4.22,.53,4.26,.68,4.3,.83,4.33,.98,4.36,1.12,4.72,1.37,4.72,1.54,4.7,1.69,4.68,1.85,4.64,2,4.58,2.14,4.52,2.28,4.45,2.42,4.37,2.55,4.26,2.66,4.15,2.77,4.03,2.88,3.9,2.97,3.76,3.07,3.61,3.15,3.46,3.24,2.93,2.93,2.79,2.98,2.65,3.02,1.27,1.53,1.23,1.53,1.19,1.54,1.15,1.54,1.11,1.55,1.07,1.55,1.03,1.56,.98,1.56,1.4,2.34,1.39,2.52,.81,1.57,.76,1.56,.72,1.56,.67,1.56,.63,1.56,.58,1.55,.53,1.55,.49,1.54,.44,1.53,.39,1.53,.35,1.52,.3,1.51,.25,1.5,.2,1.49,.16,1.48,.15,2.29,.03,1.62-.06,2.4-.2,2.35-.33,2.3-.3,1.51-.56,2.22-.45,1.45-.51,1.42-.57,1.39-.62,1.37-.68,1.34-.74,1.31-.8,1.28-1.31,1.86-.94,1.2-1,1.16-1.05,1.13-1.67,1.63-1.79,1.55-1.26,.99-1.99,1.41-2.1,1.32-1.46,.83-1.5,.79-1.55,.75-1.6,.71-1.64,.67-1.56,.58-1.59,.54-1.62,.51-1.66,.47-1.69,.43-1.72,.4-1.75,.36-1.78,.32-1.81,.29-1.84,.25-1.86,.21-1.89,.17-1.92,.13-1.94,.1-1.97,.06-1.99,.02Zm-121.61-68.94l.92,1.64,1.39,2.33,.98,1.55,1.02,1.55,1.06,1.55,1.1,1.54,1.14,1.54,1.18,1.53,1.22,1.53,1.26,1.52,2.64,3.01,2.78,2.97,2.92,2.92,3.45,3.22,3.6,3.14,3.75,3.06,3.88,2.96,4.01,2.87,4.14,2.76,4.25,2.66,4.36,2.54,4.43,2.41,4.51,2.27,4.57,2.14,4.62,1.99,4.67,1.84,4.69,1.69,4.7,1.53,4.71,1.37,4.34,1.12,4.32,.97,4.29,.83,4.25,.68,4.2,.53,4.15,.38,2.05,.13,2.04,.09,2.02,.06,2,.02,1.98-.02,1.96-.06,1.93-.1,1.91-.13,1.88-.17,1.85-.21,1.82-.25,1.8-.28,1.77-.32,1.74-.36,1.71-.39,1.67-.43,1.64-.47,1.61-.5,1.58-.54,1.54-.58,1.63-.66,1.58-.7,1.54-.74,1.49-.78,2.14-1.25,2.04-1.34,1.93-1.42,1.81-1.5,1.69-1.58,1.57-1.66,.98-1.15,1.37-1.79,.85-1.23,.79-1.26,.73-1.29,.67-1.32,.62-1.35,.56-1.38,.5-1.4,.44-1.43,.55-2.19,.42-2.24,.21-1.52,.2-2.32,.06-2.37-.07-2.42-.11-1.45-.16-1.46-.2-1.47-.25-1.48-.3-1.49-.34-1.5-.39-1.51-.44-1.52-.48-1.53-.53-1.53-.58-1.54-.62-1.54-.67-1.55-.71-1.55-.76-1.55-.8-1.55-1.38-2.51-1.39-2.33-.98-1.55-1.02-1.55-1.06-1.55-1.1-1.54-1.14-1.54-1.18-1.53-1.22-1.52-1.26-1.52-2.64-3.01-2.78-2.97-2.92-2.92-3.45-3.22-3.6-3.14-3.75-3.06-3.88-2.96-4.01-2.87-4.13-2.76-4.25-2.66-4.36-2.54-4.43-2.41-4.51-2.27-4.57-2.14-4.62-1.99-4.66-1.84-4.69-1.69-4.7-1.53-4.71-1.37-4.34-1.12-4.32-.97-4.29-.83-4.25-.68-4.2-.53-4.15-.38-2.05-.13-2.04-.1-2.02-.06-2-.02-1.98,.02-1.96,.06-1.93,.1-1.91,.13-1.88,.17-1.85,.21-1.83,.25-1.8,.28-1.77,.32-1.74,.36-1.71,.39-1.68,.43-1.64,.47-1.61,.5-1.58,.54-1.54,.58-1.63,.66-1.58,.7-1.54,.74-1.49,.78-2.14,1.25-2.04,1.33-1.93,1.42-1.81,1.5-1.69,1.58-1.57,1.66-1.45,1.73-1.33,1.81-.82,1.25-.76,1.28-.7,1.31-.64,1.33-.59,1.36-.53,1.39-.47,1.41-.41,1.44-.35,1.46-.29,1.49-.33,2.27-.2,2.32-.06,2.37,.07,2.42,.11,1.45,.16,1.46,.2,1.47,.25,1.49,.3,1.49,.34,1.5,.39,1.51,.44,1.52,.48,1.53,.53,1.53,.58,1.54,.62,1.54,.67,1.55,.71,1.55,.76,1.55,1.26,2.42Z"/></g><g id="POLYLINE-19"><path class="cls-1" d="M270.14,186.69l-2.01-.02-2.03-.06-2.05-.1-2.06-.14-2.08-.17-2.09-.21-4.22-.54-4.27-.69-4.31-.84-4.34-.99-4.36-1.14-4.77-1.41-4.75-1.57-4.73-1.73-4.7-1.89-4.65-2.04-4.6-2.19-4.54-2.33-4.47-2.47-4.52-2.69-4.41-2.82-4.28-2.94-4.14-3.06-3.99-3.16-1.94-1.62-1.89-1.64-1.85-1.66-1.81-1.68-1.76-1.7-1.71-1.72-2.53-2.67-2.41-2.7-2.29-2.73-2.17-2.76-2.11-2.89-1-1.45-1.89-2.91-.89-1.46-.85-1.46-.82-1.46-.77-1.46-.74-1.46-.7-1.46-.66-1.46-.62-1.45-.58-1.45-.54-1.45-.5-1.44-.44-1.38-.4-1.38-.36-1.37-.32-1.36-.29-1.36-.25-1.35-.21-1.34-.26-2.2-.13-1.72-.06-1.7v-.84l.04-1.67,.11-1.65,.17-1.62,.24-1.6,.31-1.58,.38-1.55,.44-1.52,.51-1.5,.57-1.47,.63-1.43,.7-1.4,.76-1.37,.83-1.34,.86-1.26,.92-1.23,.97-1.19,1.03-1.16,1.09-1.12,1.14-1.08,1.81-1.55,1.27-.99,2.01-1.41,2.12-1.32,.73-.42,1.5-.81,1.55-.77,1.6-.73,1.65-.69,1.55-.59,1.58-.55,1.62-.52,1.65-.48,1.68-.44,1.71-.4,1.75-.37,1.78-.33,1.81-.29,1.83-.25,1.86-.21,1.89-.17,1.92-.14,1.94-.1,1.97-.06,1.99-.02,2.01,.02,2.03,.06,2.05,.1,2.06,.14,2.08,.17,2.09,.21,4.22,.54,4.27,.69,4.31,.84,4.34,.99,4.36,1.14,4.77,1.41,4.75,1.57,4.73,1.73,4.7,1.89,4.65,2.04,4.6,2.19,4.54,2.33,4.47,2.47,4.52,2.69,4.4,2.82,4.28,2.94,4.14,3.06,3.99,3.16,1.94,1.62,1.89,1.64,1.85,1.66,1.8,1.68,1.76,1.7,1.71,1.72,2.53,2.67,2.41,2.7,2.29,2.73,2.17,2.76,1.08,1.44,1.04,1.45,1,1.45,.97,1.45,.93,1.46,1.75,2.92,.82,1.46,.78,1.46,.74,1.46,.7,1.46,.66,1.46,.62,1.45,.58,1.45,.54,1.45,.5,1.44,.44,1.38,.4,1.38,.36,1.37,.32,1.37,.29,1.36,.25,1.35,.21,1.34,.26,2.2,.17,2.57,.03,1.69-.04,1.67-.11,1.65-.17,1.62-.24,1.6-.31,1.58-.37,1.55-.44,1.52-.5,1.5-.57,1.46-.64,1.44-.7,1.4-.77,1.37-.83,1.34-.86,1.26-.92,1.23-.98,1.19-1.03,1.16-1.08,1.12-1.14,1.08-1.19,1.04-1.25,1.01-1.97,1.44-2.08,1.35-1.45,.85-1.5,.81-1.55,.77-1.6,.73-1.65,.68-1.55,.59-1.58,.55-1.62,.52-1.65,.48-1.68,.44-1.71,.4-1.75,.37-1.78,.33-1.81,.29-1.83,.25-1.86,.21-1.89,.17-1.92,.13-1.94,.1-1.97,.06-1.99,.02Zm-119.87-67.96l.81,1.45,.85,1.45,.89,1.45,1.88,2.89,2.03,2.88,1.07,1.43,2.16,2.75,2.28,2.72,2.4,2.69,2.52,2.66,1.71,1.71,1.75,1.69,1.8,1.68,1.84,1.65,1.89,1.63,1.93,1.61,3.98,3.15,4.13,3.05,4.26,2.93,4.39,2.81,4.51,2.69,4.45,2.47,4.52,2.33,4.59,2.18,4.64,2.04,4.68,1.88,4.71,1.73,4.74,1.57,4.75,1.4,4.35,1.14,4.32,.99,4.29,.84,4.25,.69,4.21,.54,2.08,.21,2.07,.17,2.05,.13,2.04,.1,2.02,.06,2,.02,1.98-.02,1.96-.06,1.93-.1,1.91-.13,1.88-.17,1.85-.21,1.82-.25,1.79-.29,1.76-.33,1.73-.36,1.7-.4,1.67-.44,1.64-.47,1.6-.51,1.57-.55,1.53-.58,1.63-.68,1.58-.72,1.54-.76,2.21-1.22,2.1-1.3,1.98-1.39,1.87-1.48,1.75-1.56,1.1-1.09,1.04-1.12,.99-1.16,.93-1.19,.88-1.23,.83-1.28,.79-1.33,.72-1.37,.66-1.4,.6-1.43,.53-1.46,.47-1.49,.4-1.52,.34-1.54,.27-1.57,.21-1.59,.14-1.61,.07-1.64v-2.49l-.11-1.69-.16-1.71-.17-1.32-.21-1.33-.24-1.34-.28-1.34-.32-1.35-.36-1.36-.4-1.37-.43-1.37-.49-1.43-.53-1.44-.57-1.44-.61-1.44-.65-1.45-.69-1.45-.73-1.45-.77-1.45-.81-1.45-.85-1.45-.89-1.45-.92-1.45-.96-1.45-2.03-2.88-1.07-1.43-2.16-2.75-2.28-2.72-2.4-2.69-2.52-2.66-1.71-1.71-1.75-1.7-1.8-1.67-1.84-1.66-1.89-1.63-1.93-1.61-3.98-3.15-4.13-3.05-4.27-2.93-4.39-2.81-4.51-2.69-4.45-2.47-4.52-2.33-4.59-2.18-4.64-2.03-4.68-1.88-4.71-1.73-4.74-1.57-4.75-1.4-4.35-1.14-4.32-.99-4.29-.84-4.25-.69-4.21-.54-2.08-.21-2.07-.17-2.05-.13-2.04-.1-2.02-.06-2-.02-1.98,.02-1.96,.06-1.93,.1-1.91,.14-1.88,.17-1.85,.21-1.82,.25-1.79,.29-1.76,.33-1.73,.36-1.7,.4-1.67,.44-1.64,.47-1.6,.51-1.57,.55-1.53,.58-1.63,.68-1.58,.72-1.53,.76-2.21,1.21-2.1,1.31-1.98,1.39-1.26,.98-1.79,1.53-1.12,1.07-1.59,1.67-.99,1.16-.93,1.19-.88,1.23-.83,1.28-.79,1.34-.72,1.37-.66,1.4-.6,1.43-.53,1.46-.47,1.49-.4,1.52-.34,1.54-.27,1.57-.21,1.59-.14,1.62-.07,1.64v2.49l.11,1.69,.16,1.71,.17,1.32,.21,1.33,.24,1.34,.28,1.34,.32,1.35,.36,1.36,.4,1.37,.44,1.37,.49,1.43,.53,1.44,.57,1.44,.61,1.44,.65,1.45,.69,1.45,.73,1.45,.77,1.45Z"/></g><g id="POLYLINE-20"><path class="cls-1" d="M274.25,172.76l-2.02-.02-2.04-.06-2.05-.1-2.07-.14-2.08-.18-2.1-.22-2.11-.26-2.13-.3-4.29-.72-4.33-.88-4.36-1.04-4.38-1.19-2.56-.77-2.56-.82-2.56-.87-2.55-.92-3.56-1.36-3.54-1.46-3.51-1.54-3.47-1.63-3.44-1.71-3.39-1.8-3.35-1.88-3.29-1.96-3.69-2.32-3.6-2.41-3.5-2.49-3.4-2.58-3.29-2.65-3.17-2.71-3.05-2.77-2.92-2.83-2.5-2.59-2.39-2.62-2.27-2.65-2.14-2.68-1.11-1.47-1.07-1.47-1.03-1.48-.99-1.48-.95-1.48-.91-1.48-.87-1.49-.83-1.49-.79-1.48-.75-1.49-.7-1.49-.66-1.48-.62-1.48-.58-1.48-.53-1.47-.49-1.47-.41-1.35-.37-1.34-.33-1.33-.29-1.33-.25-1.32-.22-1.31-.18-1.3-.14-1.29-.11-1.43-.06-1.42v-1.4l.06-2.08,.18-2.04,.29-2,.39-1.96,.5-1.92,.61-1.87,.71-1.83,.82-1.78,.6-1.16,.57-.99,.6-.97,.64-.95,.67-.93,.7-.91,.74-.89,.77-.87,.8-.85,.84-.83,.87-.81,.9-.79,.93-.76,.96-.74,1-.72,1.03-.7,1.83-1.14,1.59-.9,1.65-.84,1.71-.79,.87-.38,1.53-.62,1.56-.58,1.6-.54,1.63-.5,1.67-.46,1.7-.42,1.74-.38,1.77-.34,1.8-.3,1.83-.26,1.86-.22,1.89-.18,1.92-.14,1.94-.1,1.97-.06,2-.02,2.02,.02,2.04,.06,2.05,.1,2.07,.14,2.08,.18,2.1,.22,2.12,.26,2.13,.3,4.29,.72,4.33,.88,4.36,1.04,4.38,1.19,2.56,.77,2.56,.82,2.56,.87,2.55,.92,3.56,1.36,3.54,1.45,3.51,1.54,3.47,1.63,3.44,1.71,3.39,1.8,3.35,1.88,3.29,1.96,3.69,2.32,3.6,2.41,3.5,2.49,3.4,2.58,3.29,2.65,3.17,2.71,3.05,2.78,2.92,2.83,2.5,2.59,2.39,2.62,2.27,2.65,2.14,2.68,1.11,1.47,1.07,1.47,1.03,1.47,.99,1.48,.95,1.48,.91,1.49,.87,1.49,.83,1.49,.79,1.49,.75,1.49,.7,1.48,.66,1.48,.62,1.48,.58,1.48,.53,1.47,.49,1.47,.41,1.35,.37,1.34,.33,1.33,.29,1.33,.26,1.32,.22,1.31,.18,1.3,.14,1.29,.11,1.43,.06,1.42v1.4l-.06,2.08-.18,2.04-.29,2-.39,1.96-.5,1.92-.61,1.87-.72,1.83-.82,1.78-.6,1.16-.57,.99-.6,.97-.64,.95-.67,.93-.7,.92-.74,.89-.77,.87-.8,.85-.84,.83-.87,.81-.9,.79-.93,.76-.96,.74-1,.72-1.03,.7-1.83,1.14-1.59,.89-1.65,.85-1.71,.79-.87,.38-1.53,.62-1.56,.58-1.6,.54-1.64,.5-1.67,.46-1.7,.42-1.74,.38-1.77,.34-1.8,.3-1.83,.26-1.86,.22-1.89,.18-1.92,.14-1.94,.1-1.97,.06-2,.02Zm-114.99-65.21l.83,1.48,.87,1.48,.91,1.48,.95,1.47,.99,1.47,1.03,1.47,1.07,1.46,1.11,1.46,2.13,2.67,2.26,2.64,2.38,2.61,2.49,2.58,2.9,2.82,3.03,2.76,3.16,2.7,3.28,2.64,3.39,2.57,3.49,2.49,3.58,2.4,3.68,2.31,3.28,1.95,3.33,1.87,3.38,1.79,3.42,1.71,3.46,1.62,3.5,1.54,3.53,1.45,3.55,1.36,2.54,.91,2.55,.86,2.55,.81,2.55,.76,4.37,1.19,4.34,1.03,4.31,.88,4.27,.72,2.12,.3,2.11,.26,2.09,.22,2.08,.18,2.06,.14,2.04,.1,2.03,.06,2.01,.02,1.99-.02,1.96-.06,1.93-.1,1.91-.14,1.88-.18,1.85-.22,1.82-.26,1.79-.3,1.75-.34,1.72-.38,1.69-.42,1.66-.46,1.62-.5,1.59-.54,1.55-.57,2.38-.98,1.69-.79,1.63-.84,1.57-.88,1.81-1.13,1.01-.69,.98-.71,.95-.73,.92-.75,.89-.78,.86-.8,.83-.82,.79-.84,.76-.86,.73-.88,.69-.9,.66-.92,.63-.94,.59-.96,1.15-2.12,.81-1.75,.71-1.8,.6-1.85,.5-1.89,.39-1.94,.28-1.98,.18-2.01,.07-2.05v-1.39l-.07-1.4-.11-1.41-.14-1.28-.18-1.29-.21-1.3-.25-1.31-.29-1.31-.33-1.32-.37-1.33-.4-1.33-.48-1.46-.53-1.46-.57-1.47-.61-1.47-.66-1.47-.7-1.47-.74-1.48-.78-1.48-.83-1.48-.87-1.48-.91-1.48-.95-1.47-.99-1.47-1.03-1.47-1.07-1.46-1.11-1.46-2.13-2.67-2.26-2.64-2.38-2.61-2.49-2.58-2.9-2.82-3.03-2.77-3.16-2.7-3.28-2.64-3.39-2.57-3.49-2.49-3.58-2.4-3.68-2.31-3.28-1.95-3.33-1.87-3.38-1.79-3.42-1.71-3.46-1.62-3.5-1.54-3.53-1.45-3.55-1.36-2.54-.91-2.55-.86-2.55-.81-2.55-.76-4.37-1.19-4.34-1.03-4.31-.88-4.27-.72-2.12-.3-2.11-.26-2.09-.22-2.08-.18-2.06-.14-2.04-.1-2.03-.06-2.01-.02-1.98,.02-1.96,.06-1.93,.1-1.91,.14-1.88,.18-1.85,.22-1.82,.26-1.79,.3-1.75,.34-1.72,.38-1.69,.42-1.66,.46-1.62,.5-1.59,.53-1.55,.57-2.38,.98-1.69,.79-1.63,.84-1.57,.89-1.81,1.13-1.01,.69-.98,.71-.95,.73-.92,.75-.89,.78-.86,.8-.83,.82-.79,.84-.76,.86-.73,.88-.69,.9-.66,.92-.63,.94-.59,.96-1.15,2.12-.81,1.75-.7,1.8-.6,1.85-.5,1.89-.39,1.94-.28,1.98-.18,2.01-.07,2.05v1.39l.07,1.4,.11,1.41,.14,1.28,.18,1.29,.21,1.3,.25,1.3,.29,1.31,.33,1.32,.37,1.33,.4,1.33,.48,1.46,.53,1.46,.57,1.46,.61,1.47,.66,1.47,.7,1.47,.74,1.48,.78,1.48Z"/></g><g id="POLYLINE-21"><path class="cls-1" d="M277.26,156.83l-2.03-.02-2.05-.07-2.07-.11-2.08-.16-2.1-.2-2.12-.24-2.13-.29-2.14-.33-2.16-.37-2.17-.41-2.18-.46-2.18-.5-4.39-1.12-4.4-1.29-2.56-.83-2.56-.88-2.55-.93-2.54-.98-2.53-1.04-2.51-1.08-2.5-1.13-2.48-1.18-2.46-1.23-2.43-1.27-2.41-1.32-2.38-1.36-2.35-1.4-2.31-1.44-2.28-1.48-2.24-1.52-3.44-2.46-2.45-1.85-2.39-1.89-2.32-1.93-2.26-1.97-2.19-2-2.11-2.03-2.04-2.06-1.96-2.09-1.88-2.11-1.79-2.13-1.71-2.15-1.62-2.16-1.53-2.17-1.44-2.18-1.34-2.19-1.25-2.2-1.14-2.19-1.05-2.19-.95-2.18-.84-2.18-.74-2.17-.63-2.15-.53-2.14-.42-2.12-.32-2.1-.21-2.07-.1-2.04v-1.01l.05-1.99,.17-1.96,.28-1.92,.38-1.88,.59-2.18,.41-1.23,.59-1.53,.67-1.49,.75-1.45,.83-1.41,.9-1.37,.98-1.32,1.05-1.28,1.13-1.24,1.2-1.19,1.27-1.14,1.34-1.09,1.41-1.04,1.47-.99,1.54-.94,1.6-.88,1.67-.83,1.48-.67,1.52-.63,1.56-.59,1.6-.54,1.64-.5,1.68-.46,1.72-.42,1.75-.37,1.79-.33,1.82-.29,1.86-.24,1.89-.2,1.92-.16,1.95-.11,1.98-.07,2.01-.02,2.03,.02,2.05,.07,2.07,.11,2.08,.15,2.1,.2,2.12,.24,2.13,.29,2.14,.33,2.16,.37,2.17,.41,2.18,.46,2.18,.5,4.38,1.12,4.4,1.29,2.56,.83,2.56,.88,2.55,.93,2.54,.98,2.53,1.03,2.51,1.08,2.5,1.13,2.48,1.18,2.46,1.23,2.43,1.27,2.41,1.32,2.38,1.36,2.34,1.4,2.31,1.44,2.28,1.48,2.24,1.52,3.44,2.46,2.45,1.85,2.39,1.89,2.33,1.93,2.25,1.97,2.19,2,2.11,2.03,2.04,2.06,1.96,2.09,1.88,2.11,1.79,2.13,1.71,2.15,1.62,2.16,1.53,2.17,1.44,2.18,1.34,2.19,1.25,2.2,1.15,2.2,1.05,2.19,.95,2.19,.84,2.17,.74,2.17,.63,2.15,.53,2.14,.42,2.12,.32,2.1,.21,2.07,.1,2.04v1.01l-.05,1.99-.17,1.96-.28,1.92-.38,1.88-.59,2.17-.41,1.23-.59,1.53-.67,1.49-.75,1.45-.83,1.41-.9,1.37-.98,1.33-1.05,1.28-1.13,1.24-1.2,1.19-1.27,1.14-1.34,1.09-1.41,1.04-1.47,.99-1.54,.94-1.6,.88-1.67,.83-1.48,.67-1.52,.63-1.56,.59-1.61,.54-1.64,.5-1.68,.46-1.72,.42-1.75,.37-1.79,.33-1.82,.29-1.86,.24-1.89,.2-1.92,.15-1.95,.11-1.98,.07-2.01,.02Zm-106.55-60.46l1.24,2.19,1.33,2.17,1.43,2.17,1.52,2.16,1.61,2.15,1.7,2.14,1.79,2.12,1.87,2.1,1.95,2.08,2.03,2.05,2.1,2.02,2.18,1.99,2.25,1.96,2.32,1.92,2.38,1.89,2.44,1.85,3.43,2.45,2.23,1.51,2.27,1.47,2.3,1.44,2.34,1.4,2.37,1.35,2.4,1.31,2.42,1.27,2.45,1.23,2.47,1.18,2.49,1.13,2.5,1.08,2.52,1.03,2.53,.98,2.54,.93,2.55,.88,2.55,.82,4.39,1.29,4.37,1.12,2.17,.5,2.17,.46,2.16,.41,2.15,.37,2.13,.33,2.12,.28,2.11,.24,2.09,.2,2.08,.15,2.06,.11,2.04,.07,2.02,.02,1.99-.02,1.97-.07,1.94-.11,1.91-.15,1.88-.2,1.84-.24,1.81-.28,1.78-.33,1.74-.37,1.7-.41,1.67-.45,1.63-.5,1.59-.54,1.55-.58,1.51-.62,2.3-1.07,1.62-.85,1.55-.9,1.49-.95,1.42-1,1.36-1.05,1.29-1.1,1.22-1.15,1.15-1.2,1.07-1.24,1-1.28,.92-1.32,.85-1.37,.77-1.41,.7-1.44,.62-1.48,.68-1.96,.35-1.23,.43-1.84,.32-1.88,.22-1.91,.11-1.95,.02-.99-.05-2-.15-2.03-.26-2.06-.37-2.08-.47-2.11-.58-2.12-.68-2.14-.78-2.15-.89-2.16-.99-2.17-1.09-2.18-.58-1.09-1.24-2.18-1.33-2.18-1.43-2.17-1.52-2.16-1.61-2.15-1.7-2.14-1.79-2.12-1.87-2.1-1.95-2.08-2.03-2.05-2.1-2.02-2.18-1.99-2.25-1.96-2.32-1.92-2.38-1.89-2.44-1.85-3.43-2.45-2.23-1.51-2.27-1.47-2.3-1.43-2.34-1.4-2.37-1.35-2.4-1.31-2.43-1.27-2.45-1.23-2.47-1.18-2.49-1.13-2.5-1.08-2.52-1.03-2.53-.98-2.54-.93-2.55-.88-2.55-.82-4.39-1.29-4.37-1.12-2.17-.5-2.17-.46-2.16-.41-2.15-.37-2.13-.33-2.12-.28-2.11-.24-2.09-.2-2.08-.15-2.06-.11-2.04-.07-2.02-.02-1.99,.02-1.97,.07-1.94,.11-1.91,.15-1.88,.2-1.84,.24-1.81,.28-1.78,.33-1.74,.37-1.7,.41-1.67,.45-1.63,.5-1.59,.54-1.55,.58-1.51,.62-2.3,1.07-1.62,.85-1.55,.9-1.49,.95-1.42,1-1.36,1.05-1.29,1.1-1.22,1.15-1.15,1.2-1.07,1.24-1,1.28-.92,1.33-.85,1.37-.77,1.41-.7,1.45-.62,1.48-.68,1.96-.35,1.23-.43,1.84-.32,1.87-.22,1.91-.11,1.95-.02,.99,.05,2,.15,2.03,.26,2.06,.37,2.08,.47,2.11,.58,2.12,.68,2.14,.78,2.15,.89,2.16,.99,2.17,1.09,2.18,.58,1.09Z"/></g><g id="POLYLINE-22"><path class="cls-1" d="M278.89,138.35l-2.05-.03-2.08-.08-2.1-.13-2.12-.18-2.13-.23-2.15-.28-2.17-.33-2.18-.38-2.19-.43-2.2-.48-2.21-.53-2.21-.58-2.22-.63-2.22-.67-2.22-.72-2.22-.77-3.37-1.25-3.35-1.36-2.51-1.09-2.48-1.14-2.45-1.19-2.43-1.24-2.39-1.29-2.36-1.34-2.32-1.38-2.29-1.43-2.25-1.47-2.2-1.51-2.16-1.55-2.11-1.59-2.06-1.63-2.01-1.66-1.96-1.7-1.91-1.73-1.32-1.25-2.53-2.52-1.21-1.28-1.18-1.29-1.14-1.3-1.11-1.3-1.07-1.31-1.03-1.32-1-1.33-.96-1.33-.92-1.34-.88-1.34-.84-1.34-.8-1.35-.76-1.36-.71-1.35-.67-1.35-.63-1.35-.58-1.34-.54-1.34-.5-1.33-.45-1.33-.41-1.32-.36-1.31-.32-1.31-.27-1.3-.22-1.29-.31-2.56-.11-1.89-.02-1.5,.07-1.72,.16-1.69,.25-1.65,.34-1.62,.43-1.58,.52-1.54,.61-1.5,.69-1.46,.78-1.41,.87-1.37,.95-1.32,1.04-1.27,1.12-1.23,1.2-1.17,1.29-1.12,1.6-1.24,.95-.67,.99-.64,1.71-1.01,1.42-.75,1.47-.7,1.52-.65,2.37-.89,1.64-.53,1.68-.48,1.72-.43,1.77-.38,1.81-.33,1.85-.28,1.89-.23,1.92-.18,1.96-.13,1.99-.08,2.03-.03,2.05,.03,2.08,.08,2.1,.13,2.12,.18,2.13,.23,2.15,.28,2.17,.33,2.18,.38,2.19,.43,2.2,.48,2.21,.53,2.21,.58,2.22,.62,2.22,.67,2.22,.72,2.23,.77,3.37,1.25,3.35,1.36,2.51,1.09,2.48,1.14,2.46,1.19,2.42,1.24,2.39,1.29,2.36,1.34,2.32,1.38,2.29,1.43,2.25,1.47,2.2,1.51,2.16,1.55,2.11,1.59,2.06,1.63,2.01,1.66,1.96,1.7,1.91,1.73,1.32,1.25,1.28,1.26,2.46,2.55,1.18,1.29,1.14,1.3,1.11,1.3,1.07,1.31,1.03,1.32,.99,1.33,.96,1.33,.92,1.34,.88,1.34,.84,1.34,.8,1.35,.76,1.35,.71,1.35,.67,1.35,.63,1.35,.58,1.34,.54,1.34,.5,1.33,.45,1.33,.41,1.32,.36,1.32,.32,1.31,.27,1.3,.22,1.29,.31,2.56,.11,1.89,.02,1.5-.07,1.72-.16,1.69-.25,1.65-.34,1.62-.43,1.58-.52,1.54-.61,1.5-.69,1.46-.78,1.42-.87,1.37-.95,1.32-1.04,1.27-1.12,1.23-1.2,1.17-1.29,1.12-1.6,1.24-.95,.67-.99,.64-1.71,1.01-1.42,.75-1.47,.7-1.52,.65-1.57,.6-2.44,.81-1.68,.48-1.72,.43-1.77,.38-1.81,.33-1.85,.28-1.89,.23-1.92,.18-1.96,.13-1.99,.08-2.03,.03Zm-93.58-53.16l.75,1.34,.79,1.34,.83,1.33,.87,1.33,.91,1.33,.95,1.32,.99,1.32,1.03,1.31,1.06,1.3,1.1,1.3,1.14,1.29,1.17,1.28,1.21,1.27,2.52,2.51,1.31,1.24,1.9,1.72,1.95,1.69,2,1.65,2.05,1.62,2.1,1.58,2.15,1.54,2.2,1.5,2.24,1.46,2.28,1.42,2.32,1.38,2.35,1.33,2.38,1.29,2.42,1.24,2.44,1.19,2.47,1.14,2.5,1.08,3.33,1.35,3.35,1.25,2.21,.76,2.21,.72,2.21,.67,2.21,.62,2.21,.57,2.2,.53,2.19,.48,2.18,.43,2.17,.38,2.16,.33,2.14,.28,2.12,.23,2.11,.18,2.09,.13,2.07,.08,2.04,.03,2.01-.03,1.98-.08,1.95-.13,1.91-.18,1.87-.23,1.83-.28,1.79-.33,1.75-.38,1.71-.43,2.48-.73,2.38-.84,1.53-.62,1.48-.67,1.43-.72,1.38-.76,1.01-.61,.97-.63,1.85-1.34,1.31-1.08,1.23-1.13,1.14-1.18,1.06-1.23,.98-1.28,.89-1.32,.81-1.37,.72-1.41,.64-1.45,.55-1.49,.46-1.53,.38-1.57,.29-1.61,.2-1.64,.11-1.68,.02-.85-.04-2.09-.15-1.87-.07-.63-.18-1.27-.22-1.28-.27-1.29-.31-1.29-.36-1.3-.4-1.31-.45-1.31-.49-1.32-.53-1.33-.58-1.33-.62-1.33-.67-1.34-.71-1.34-.75-1.34-.79-1.34-.83-1.33-.87-1.33-.91-1.33-.95-1.32-.99-1.32-1.03-1.31-1.06-1.3-1.1-1.3-1.14-1.29-1.17-1.28-1.21-1.27-1.24-1.26-1.28-1.25-1.31-1.24-1.9-1.72-1.95-1.69-2-1.65-2.05-1.62-2.1-1.58-2.15-1.54-2.2-1.5-2.24-1.46-2.28-1.42-2.32-1.38-2.35-1.33-2.38-1.28-2.42-1.24-2.45-1.19-2.47-1.14-2.5-1.08-3.33-1.35-3.35-1.25-2.22-.76-2.21-.72-2.21-.67-2.21-.62-2.21-.58-2.2-.53-2.19-.48-2.18-.43-2.17-.38-2.16-.33-2.14-.28-2.12-.23-2.11-.18-2.09-.13-2.07-.08-2.04-.03-2.01,.03-1.98,.08-1.95,.13-1.91,.18-1.87,.23-1.83,.28-1.79,.33-1.75,.38-1.71,.43-2.48,.73-2.38,.84-2.27,.95-1.45,.69-1.4,.74-.68,.39-1.01,.61-.97,.63-1.85,1.34-1.31,1.08-1.23,1.13-1.14,1.18-1.06,1.23-.98,1.28-.89,1.32-.81,1.37-.72,1.41-.64,1.45-.55,1.49-.46,1.53-.38,1.57-.29,1.61-.2,1.64-.11,1.68-.02,.85,.04,2.09,.15,1.87,.07,.63,.18,1.27,.22,1.28,.27,1.29,.31,1.29,.36,1.3,.4,1.31,.45,1.31,.49,1.32,.53,1.33,.58,1.33,.62,1.33,.67,1.34,.71,1.34Z"/></g><g id="POLYLINE-23"><path class="cls-1" d="M278.41,116.01l-2.13-.04-2.16-.1-2.18-.17-2.21-.24-2.22-.31-2.24-.38-2.25-.44-2.27-.51-2.27-.57-2.28-.64-2.28-.7-2.28-.76-2.28-.83-2.27-.89-2.26-.95-2.25-1.01-2.55-1.22-2.51-1.29-2.47-1.36-2.42-1.42-2.37-1.48-2.32-1.54-2.26-1.6-2.2-1.65-1.56-1.23-1.52-1.26-1.47-1.28-1.43-1.29-1.38-1.31-1.34-1.33-1.29-1.34-1.24-1.36-1.19-1.37-1.14-1.38-1.09-1.4-1.03-1.4-.98-1.41-.92-1.42-.87-1.43-.81-1.44-.75-1.42-1.01-2.14-.87-2.12-.72-2.11-.58-2.09-.44-2.06-.29-2.03-.11-1.34-.05-1.32,.02-1.3,.08-1.28,.15-1.27,.4-2.08,.46-1.64,.58-1.58,.71-1.53,.82-1.47,.94-1.4,1.06-1.34,1.17-1.27,.63-.61,1.16-1.02,1.24-.96,1.31-.89,1.39-.83,1.46-.77,1.52-.71,1.59-.64,1.66-.58,1.72-.51,1.78-.44,1.84-.38,1.89-.31,1.94-.24,2-.17,2.04-.11,2.09-.04,2.13,.04,2.16,.1,2.18,.17,2.21,.24,2.22,.31,2.24,.38,2.25,.44,2.27,.51,2.27,.57,2.28,.64,2.28,.7,2.28,.76,2.28,.83,2.27,.89,2.26,.95,2.25,1.01,2.55,1.22,2.51,1.29,2.47,1.36,2.42,1.42,2.37,1.48,2.32,1.54,2.26,1.6,2.2,1.65,1.56,1.23,1.52,1.26,1.47,1.28,1.43,1.29,1.38,1.31,1.33,1.33,1.29,1.34,1.24,1.36,1.19,1.37,1.14,1.38,1.08,1.4,1.03,1.4,.98,1.41,.92,1.42,.87,1.43,.81,1.43,.75,1.43,1.01,2.14,.87,2.13,.72,2.11,.58,2.09,.44,2.06,.29,2.03,.11,1.34,.05,1.32-.02,1.3-.08,1.29-.15,1.26-.3,1.67-.43,1.65-.55,1.6-.68,1.54-.79,1.48-.91,1.42-1.03,1.35-1.14,1.29-.93,.92-1.16,1.02-1.24,.96-1.31,.89-1.39,.83-1.46,.77-1.53,.71-1.59,.64-1.66,.58-1.72,.51-1.78,.45-1.83,.38-1.89,.31-1.94,.24-2,.17-2.04,.11-2.09,.04Zm-73.76-42l.8,1.42,.86,1.41,.92,1.41,.97,1.4,1.02,1.39,1.08,1.38,1.13,1.37,1.18,1.36,1.23,1.35,1.28,1.33,1.33,1.32,1.37,1.3,1.42,1.29,1.46,1.27,1.51,1.25,1.55,1.23,2.19,1.64,2.25,1.59,2.31,1.53,2.36,1.47,2.41,1.42,2.46,1.35,2.5,1.29,2.54,1.22,2.24,1,2.25,.94,2.26,.88,2.27,.82,2.27,.76,2.27,.7,2.27,.63,2.26,.57,2.25,.5,2.24,.44,2.23,.38,2.21,.31,2.19,.24,2.17,.17,2.14,.1,2.11,.04,3.09-.08,2-.14,1.95-.21,1.9-.27,1.84-.34,1.79-.41,1.73-.47,1.67-.54,1.6-.6,1.54-.66,1.47-.73,1.4-.79,1.33-.85,1.25-.91,1.18-.97,1.47-1.41,1.12-1.26,1-1.32,.89-1.39,.78-1.45,.66-1.51,.54-1.56,.42-1.62,.2-1.02,.18-1.23,.11-1.25,.05-1.27-.02-1.29-.08-1.3-.24-1.99-.38-2.02-.53-2.05-.67-2.07-.81-2.09-.62-1.41-.68-1.41-.74-1.42-.8-1.42-.86-1.41-.92-1.41-.97-1.4-1.02-1.39-1.08-1.38-1.13-1.37-1.18-1.36-1.23-1.35-1.28-1.34-1.33-1.32-1.37-1.3-1.42-1.29-1.46-1.27-1.51-1.25-1.55-1.23-2.19-1.64-2.25-1.59-2.31-1.53-2.36-1.48-2.41-1.41-2.46-1.35-2.5-1.29-2.54-1.22-2.24-1-2.25-.94-2.26-.88-2.27-.82-2.27-.76-2.27-.7-2.27-.63-2.26-.57-2.25-.51-2.24-.44-2.23-.37-2.21-.31-2.19-.24-2.17-.17-2.14-.1-2.11-.03-3.09,.08-2,.14-1.95,.21-1.9,.27-1.84,.34-1.79,.41-1.73,.47-1.66,.54-1.6,.6-1.54,.66-1.47,.73-1.4,.79-1.33,.85-1.25,.91-1.17,.97-1.47,1.4-1.12,1.26-1,1.32-.89,1.39-.78,1.45-.66,1.5-.54,1.56-.42,1.62-.3,1.63-.15,1.24-.08,1.26-.02,1.28,.05,1.3,.19,1.98,.34,2.01,.48,2.04,.62,2.07,.76,2.09,.9,2.11,.68,1.41,.74,1.41Z"/></g><g id="POLYLINE-24"><path class="cls-1" d="M276.77,102.26l-2.07-.04-2.1-.12-2.13-.2-2.15-.28-2.17-.36-2.18-.44-2.2-.51-2.2-.59-2.2-.66-2.2-.73-2.2-.81-2.19-.88-2.17-.95-2.16-1.01-2.13-1.08-2.11-1.15-1.46-.84-1.44-.87-1.83-1.17-1.78-1.2-1.73-1.24-1.68-1.27-1.62-1.31-1.56-1.33-1.5-1.36-1.44-1.39-1.38-1.41-1.31-1.43-1.84-2.19-1.14-1.48-1.07-1.49-.99-1.51-.91-1.52-.83-1.52-.74-1.52-.65-1.51-.57-1.5-.48-1.48-.39-1.47-.3-1.45-.21-1.43-.12-1.41-.03-1.39,.06-1.36,.27-1.99,.47-1.92,.68-1.84,.57-1.18,.77-1.31,1.15-1.58,1.23-1.35,1.37-1.25,1.51-1.14,.97-.63,1.37-.78,1.45-.7,1.53-.63,1.61-.55,1.68-.48,1.75-.4,1.82-.32,1.88-.24,1.94-.16,2-.08h1.02l2.08,.03,2.1,.12,2.13,.2,2.15,.28,2.17,.36,2.18,.44,2.2,.51,2.2,.59,2.2,.66,2.2,.73,2.2,.81,2.19,.88,2.17,.94,2.16,1.01,2.13,1.08,2.11,1.15,1.46,.84,1.44,.87,1.83,1.17,1.78,1.2,1.73,1.24,1.68,1.27,1.62,1.31,1.56,1.34,1.5,1.36,1.44,1.39,1.38,1.41,1.31,1.44,1.84,2.19,1.14,1.48,1.07,1.49,.99,1.51,.91,1.52,.83,1.52,.74,1.52,.65,1.51,.57,1.5,.48,1.48,.39,1.47,.3,1.45,.21,1.43,.12,1.41,.03,1.39-.06,1.36-.26,1.99-.47,1.92-.68,1.84-.57,1.18-.77,1.31-1.15,1.58-1.23,1.35-1.37,1.25-1.51,1.14-.97,.63-1.37,.78-1.45,.7-1.53,.63-1.61,.55-1.68,.48-1.75,.4-1.82,.32-1.88,.24-1.94,.16-2,.08h-1.02Zm-59.26-33.83l.86,1.5,.94,1.5,1.02,1.48,1.09,1.47,1.16,1.46,1.24,1.44,1.3,1.42,1.37,1.4,1.43,1.38,1.49,1.35,1.55,1.33,1.61,1.3,1.67,1.27,1.72,1.23,1.77,1.2,1.82,1.16,1.43,.87,1.46,.84,2.1,1.14,2.12,1.07,2.14,1.01,2.16,.94,2.17,.87,2.18,.8,2.19,.73,2.19,.66,2.19,.58,2.18,.51,2.17,.43,2.16,.36,3.19,.39,2.1,.16,2.07,.08h1.02l2.01-.03,1.95-.12,1.89-.2,1.83-.28,1.76-.36,1.69-.43,1.62-.51,1.54-.58,1.46-.65,1.38-.73,1.92-1.22,1.45-1.13,1.31-1.24,1.16-1.34,.63-.85,.78-1.25,.79-1.58,.66-1.79,.46-1.87,.19-1.29,.1-1.32,.02-.67-.03-1.36-.12-1.38-.2-1.4-.29-1.42-.38-1.44-.47-1.46-.56-1.48-.65-1.49-.73-1.5-.82-1.5-.9-1.5-.98-1.49-1.05-1.48-1.13-1.47-.59-.73-1.23-1.44-1.3-1.42-1.37-1.4-1.43-1.38-1.49-1.35-1.55-1.33-1.61-1.3-1.67-1.27-1.72-1.23-1.77-1.2-1.82-1.16-1.43-.86-1.46-.84-2.1-1.14-2.12-1.07-2.14-1.01-2.16-.94-2.17-.87-2.18-.8-2.19-.73-2.19-.66-2.19-.58-2.18-.51-2.17-.44-2.16-.36-3.19-.39-2.1-.16-2.07-.08h-1.02l-2.01,.03-1.95,.12-1.89,.2-1.83,.28-1.76,.36-1.69,.43-1.62,.51-1.54,.58-1.46,.65-1.38,.73-1.92,1.22-1.45,1.13-1.31,1.24-1.16,1.34-.63,.85-.78,1.25-.79,1.58-.66,1.79-.46,1.87-.19,1.28-.1,1.32-.02,.67,.03,1.36,.12,1.38,.2,1.4,.29,1.42,.38,1.44,.47,1.46,.56,1.47,.65,1.49,.73,1.5,.4,.75Z"/></g></g></g><g><path class="cls-2" d="M202.73,258.74h-6.31l-30.67,53.24h8.04l8.35-14.49h34.87l8.35,14.49h8.04l-30.67-53.24Zm-16.57,31.78l13.41-23.29,13.42,23.29h-26.83Z"/><polygon class="cls-2" points="248.46 265.72 248.46 282.87 294.95 282.87 294.95 289.84 248.46 289.84 248.46 311.98 241.49 311.98 241.49 258.74 298.26 258.74 298.26 265.72 248.46 265.72"/><path class="cls-2" d="M332.12,258.74h-6.31l-30.67,53.24h8.04l8.35-14.49h34.87l8.35,14.49h8.04l-30.67-53.24Zm-16.57,31.78l13.41-23.29,13.42,23.29h-26.83Z"/><polygon class="cls-2" points="401.08 280.21 401.08 288.17 369.03 307.9 369.03 299 393.53 284.33 369.03 269.1 369.03 260.79 401.08 280.21"/><polygon class="cls-2" points="93.03 269.68 68.53 284.35 93.03 299.58 93.03 307.89 60.98 288.47 60.98 280.52 93.03 260.78 93.03 269.68"/><path class="cls-2" d="M157.97,304.17s-.07,.08-.11,.12c.04-.04,.07-.08,.09-.13h.02Z"/><path class="cls-2" d="M140.15,282.72l-21.05-1.81c-8.01-.7-11.28-2.41-11.28-5.91,0-7.34,15.67-9.71,20.95-9.71,6.94,0,16.33,1.04,21.88,3.96l2.11,1.11c.05,.03,.12-.01,.12-.07v-7.35l-.89-.38c-7.92-3.33-17.97-3.83-23.25-3.83-9.45,0-27.89,3.91-27.89,16.02,0,11.21,12.76,12.31,18.9,12.83l21.51,1.83c10.68,.93,11.7,3.58,12.04,6.54,.09,.73,.05,1.42-.08,2.05l-.05,.18c-2.42,7.68-17.37,8.96-24.17,9.13-8.84,.23-17.96-.74-24.72-5.02l-2.25-1.43c-.05-.03-.13,0-.13,.07l-.07,7.61,.76,.41c7.65,4.16,18.46,5.31,27.64,5.07,8.9-.23,27.46-2.05,29.8-15.24,.03-.16,.06-.33,.09-.5,.04-.29,.08-.59,.1-.89,.04-.44,.06-.89,.06-1.36,0-10.23-10.18-12.48-20.13-13.33Zm17.71,22.95s.07-.08,.09-.13h.02c-.04,.05-.07,.09-.11,.13Z"/><path class="cls-2" d="M157.97,304.17s-.07,.08-.11,.12c.04-.04,.07-.08,.09-.13h.02Z"/></g></svg>