<?xml version="1.0" standalone="no"?>
<!DOCTYPE svg PUBLIC "-//W3C//DTD SVG 20010904//EN"
 "http://www.w3.org/TR/2001/REC-SVG-20010904/DTD/svg10.dtd">
<svg version="1.0" xmlns="http://www.w3.org/2000/svg"
 width="3247.000000pt" height="1606.000000pt" viewBox="0 0 3247.000000 1606.000000"
 preserveAspectRatio="xMidYMid meet">
    <defs>
        <style>
            path {
                fill: #488E27;
            }
        </style>
    </defs>

<g transform="translate(0.000000,1606.000000) scale(0.100000,-0.100000)"
fill="#000000" stroke="none">
<path d="M18600 14869 c-346 -148 -761 -304 -1310 -494 -195 -68 -557 -195
-805 -283 -813 -289 -1126 -388 -1670 -528 -181 -47 -422 -110 -535 -140 -113
-31 -378 -100 -590 -155 -462 -119 -706 -183 -940 -249 -96 -27 -224 -61 -285
-76 -133 -31 -561 -156 -775 -226 -368 -120 -1038 -422 -1355 -610 -298 -178
-583 -442 -811 -754 -12 -16 -24 -27 -27 -24 -24 23 -237 434 -243 467 -4 29
1 65 19 129 47 162 107 414 183 758 41 188 95 424 119 526 24 102 49 232 55
289 13 133 13 645 0 693 -13 45 -68 95 -115 104 -76 14 -103 0 -210 -109 -261
-267 -480 -548 -955 -1227 -117 -168 -291 -408 -386 -535 -96 -126 -275 -365
-400 -530 -371 -492 -729 -1000 -1012 -1437 -181 -278 -197 -307 -221 -403
-34 -139 -42 -247 -51 -745 -13 -664 -33 -912 -88 -1070 -15 -41 -140 -281
-156 -297 -2 -2 -65 25 -142 58 -76 34 -224 95 -329 136 -412 163 -603 212
-857 220 -180 6 -258 -2 -445 -43 -498 -110 -896 -395 -1170 -837 -66 -107
-166 -307 -212 -423 l-32 -81 -199 -117 c-110 -65 -239 -145 -287 -179 -107
-76 -290 -250 -349 -332 -56 -79 -110 -193 -125 -262 -11 -56 -10 -226 2 -238
4 -3 62 -13 130 -21 103 -13 206 -14 599 -9 330 5 507 3 580 -5 324 -35 675
-145 944 -297 117 -66 196 -124 271 -199 67 -68 100 -111 432 -549 474 -627
807 -1019 1159 -1365 212 -207 355 -332 559 -485 547 -410 1071 -649 1665
-759 285 -52 396 -61 815 -61 427 0 404 -2 1185 80 969 101 1150 116 1830 145
772 33 860 38 1330 85 658 65 733 59 1092 -94 295 -126 373 -131 471 -30 68
71 96 68 318 -37 237 -111 435 -167 599 -168 141 -1 209 20 267 80 24 24 48
44 54 44 7 0 88 -36 180 -80 263 -127 511 -202 1164 -355 351 -82 532 -134
843 -241 647 -223 835 -267 1142 -268 183 -1 316 17 362 48 136 92 85 250
-127 391 -144 96 -399 196 -1045 410 -245 81 -771 267 -1170 412 -2697 984
-3490 1269 -4097 1474 -855 288 -1061 370 -1578 624 -344 170 -450 239 -618
403 -134 132 -297 312 -297 329 0 6 27 16 60 22 90 18 353 95 540 158 669 226
1463 621 2080 1033 496 332 855 665 980 910 141 278 30 511 -284 590 -44 11
-117 23 -163 27 -46 3 -83 9 -83 12 0 3 16 26 36 51 183 228 472 645 631 910
176 294 253 453 253 524 0 148 -188 248 -522 277 -73 6 -134 12 -135 13 -1 1
58 47 130 102 231 176 401 321 503 427 54 56 284 305 509 552 1094 1200 1494
1613 1825 1886 225 186 432 380 710 669 129 134 307 318 395 409 288 298 412
476 460 659 38 149 10 267 -75 310 -61 30 -90 28 -200 -19z m-88 -381 c-76
-121 -165 -220 -561 -630 -319 -330 -551 -555 -755 -731 l-139 -119 -13 28
c-8 16 -19 36 -25 44 -8 12 48 126 266 540 152 289 282 530 288 536 7 6 104
43 217 83 231 83 662 246 700 267 39 21 44 17 22 -18z m-1062 -460 c-480 -911
-475 -903 -495 -900 -85 12 -136 1 -180 -38 -19 -18 -31 -13 -428 168 -329
150 -406 189 -401 201 4 9 9 44 12 78 l4 61 132 45 c72 25 336 118 586 207
459 163 809 286 822 289 4 0 -20 -50 -52 -111z m-8100 -270 c-1 -144 -23 -326
-55 -458 -20 -80 -74 -318 -121 -530 -74 -335 -146 -631 -200 -820 -20 -74
-14 -215 13 -290 11 -30 90 -183 176 -338 l157 -284 -64 -146 c-245 -561 -268
-612 -356 -771 -81 -150 -162 -323 -305 -656 -271 -633 -450 -947 -646 -1135
-21 -20 -42 -53 -50 -78 -11 -38 -10 -48 7 -90 28 -67 72 -95 144 -90 66 5 84
17 165 112 33 39 237 249 454 467 l393 397 57 -30 c51 -27 63 -30 126 -25 39
2 77 7 85 10 12 5 85 -136 321 -612 l306 -618 -32 -26 c-72 -57 -103 -178 -73
-278 38 -127 194 -200 329 -154 73 25 159 125 159 185 0 25 -49 25 645 0 303
-11 564 -20 581 -20 28 0 33 -4 38 -34 4 -20 22 -49 45 -72 l39 -39 -434 -845
-433 -845 -50 -6 c-76 -10 -156 -69 -180 -132 -49 -128 48 -286 394 -645 227
-237 377 -335 870 -570 425 -203 665 -298 1345 -527 658 -222 1542 -540 3840
-1378 641 -234 1327 -478 1525 -542 422 -138 809 -279 777 -283 -35 -5 -230
35 -383 79 -77 22 -270 85 -427 141 -324 113 -500 165 -782 233 -847 203 -985
243 -1240 365 -214 102 -302 131 -394 132 -91 1 -131 -16 -206 -88 l-60 -57
-50 7 c-90 12 -253 67 -390 131 -287 135 -392 149 -658 90 l-120 -27 -138 56
c-77 30 -186 67 -244 82 -103 26 -112 26 -575 34 -611 11 -1164 37 -1970 96
-910 65 -2335 202 -2655 254 -967 158 -1756 617 -2363 1375 -307 383 -525 758
-890 1525 -175 369 -250 513 -329 626 -130 190 -286 316 -463 375 -137 46
-340 28 -478 -43 l-38 -19 -21 26 c-50 64 -162 84 -246 44 -53 -26 -98 -91
-108 -155 l-6 -44 -504 0 c-277 0 -504 1 -504 3 0 2 18 50 41 108 266 685 690
1048 1334 1144 248 37 481 -1 850 -140 320 -120 511 -208 1015 -470 470 -244
496 -257 538 -252 83 9 136 74 129 158 -2 26 -13 60 -24 75 -20 27 -175 112
-560 307 -68 34 -123 65 -123 69 0 5 29 61 65 125 36 64 76 144 90 179 76 191
114 541 115 1059 0 434 20 748 53 844 42 121 697 1074 1163 1693 115 152 295
390 400 530 105 139 287 390 404 558 243 347 392 555 493 685 107 140 251 314
260 315 4 0 7 -15 7 -32z m6253 -307 l15 -30 -705 -469 -705 -470 -40 38 c-38
37 -110 70 -153 70 -20 0 -22 9 -43 217 -12 120 -18 220 -14 224 7 6 494 136
967 258 296 76 630 172 662 190 1 1 8 -12 16 -28z m859 -294 l266 -121 -5 -51
c-7 -63 12 -110 59 -150 l34 -30 -267 -275 c-292 -302 -506 -529 -789 -838
l-184 -202 -26 24 c-14 13 -35 28 -46 34 -21 11 -21 13 127 894 82 486 149
888 149 894 0 7 15 15 33 18 18 3 48 17 67 30 l34 23 141 -64 c77 -35 260
-119 407 -186z m-765 208 c35 -14 42 -22 38 -39 -3 -12 -68 -399 -145 -861
-77 -462 -143 -852 -146 -866 -4 -21 -12 -28 -42 -33 -20 -3 -53 -16 -72 -29
l-35 -24 -532 361 c-503 342 -531 362 -525 386 8 28 8 108 1 156 l-4 32 705
470 c388 259 707 469 710 468 3 -1 24 -11 47 -21z m-1772 -532 c25 -266 27
-243 -19 -259 -83 -30 -148 -106 -162 -191 l-6 -41 -67 -6 c-83 -8 -2455 -176
-2481 -176 -13 0 -20 7 -20 19 0 19 58 48 296 145 218 89 748 256 1039 327 66
16 208 54 315 84 335 93 1053 283 1076 284 7 1 17 -68 29 -186z m-172 -583 c5
-19 5 -36 0 -38 -4 -1 -339 -207 -743 -457 -718 -443 -735 -453 -755 -435 -52
46 -134 54 -198 20 -22 -12 -43 -17 -51 -13 -8 5 -205 152 -440 328 -359 270
-425 323 -420 340 3 11 11 39 18 62 6 23 15 45 19 50 10 9 2396 182 2491 179
l70 -1 9 -35z m991 -415 l523 -356 -5 -72 c-2 -40 -5 -73 -6 -73 -4 -6 -1236
-594 -1243 -594 -4 0 -18 16 -31 35 -12 19 -41 49 -64 66 -38 27 -42 34 -39
67 1 20 27 289 57 596 30 308 54 563 54 568 0 4 10 8 21 8 46 0 103 26 148 67
25 23 50 42 54 43 5 0 244 -160 531 -355z m-840 262 c38 -13 41 -16 38 -48 -5
-66 -102 -1075 -107 -1119 l-6 -45 -44 3 c-90 8 -195 -50 -236 -130 -11 -22
-26 -38 -32 -36 -7 3 -280 101 -609 219 l-596 214 1 30 c1 17 -1 41 -5 55 -7
25 19 42 734 482 l741 457 40 -34 c22 -19 58 -40 81 -48z m-3157 -167 c25 -22
63 -45 84 -52 37 -11 39 -13 38 -52 0 -23 -26 -326 -57 -675 l-58 -634 -46
-14 c-31 -9 -56 -25 -75 -48 l-29 -35 -454 153 -453 152 -14 40 c-15 43 -44
79 -85 105 l-28 17 59 95 c209 339 482 629 773 821 71 46 284 166 296 167 2 0
24 -18 49 -40z m813 -322 c401 -302 429 -325 423 -348 -4 -14 -7 -52 -7 -84
l-1 -59 -540 -333 -539 -332 -28 23 c-15 13 -37 26 -48 30 -11 3 -20 10 -20
14 0 18 110 1249 116 1292 l5 46 54 12 c29 7 71 25 92 41 21 16 44 27 51 25 7
-3 206 -150 442 -327z m3788 -364 c5 -3 -557 -614 -632 -687 -204 -200 -786
-627 -970 -713 -80 -37 -112 -66 -126 -115 -19 -66 16 -145 77 -174 34 -16 45
-16 210 0 267 27 716 13 755 -24 4 -3 -309 -64 -695 -135 -386 -71 -707 -131
-714 -133 -6 -3 -14 5 -18 17 -4 12 -19 36 -34 53 l-28 32 274 505 273 505 63
6 c79 7 126 29 176 84 44 48 74 130 69 190 l-3 37 630 303 630 303 30 -26 c16
-15 31 -28 33 -28z m-2423 -356 l591 -212 1 -53 c1 -32 10 -72 23 -98 23 -47
102 -125 127 -125 8 0 13 -4 11 -8 -7 -17 -532 -987 -538 -995 -3 -4 -24 0
-45 9 -27 11 -60 15 -105 12 l-66 -3 -346 812 -346 812 32 35 c21 24 37 34 51
31 11 -2 286 -100 610 -217z m-896 179 c8 -11 -126 -262 -585 -1098 -327 -596
-598 -1087 -602 -1091 -4 -3 -19 -4 -34 -1 l-28 5 0 642 0 641 50 23 c71 33
105 91 97 171 l-5 57 537 331 c295 183 541 332 547 332 6 1 17 -5 23 -12z
m402 -607 c133 -311 289 -676 347 -812 l105 -248 -46 -43 c-53 -49 -77 -99
-86 -176 l-6 -54 -900 -187 c-881 -183 -900 -186 -908 -166 -5 12 -19 33 -33
47 l-25 27 598 1089 598 1090 58 -1 57 -1 241 -565z m-2290 69 l447 -151 5
-46 c2 -26 6 -52 8 -59 2 -7 -261 -204 -585 -438 l-590 -425 -25 24 c-14 13
-42 32 -61 41 -19 10 -36 19 -38 20 -1 1 38 234 88 518 49 283 90 520 90 525
0 5 24 12 54 14 66 5 119 41 137 93 7 19 15 35 19 35 3 0 206 -68 451 -151z
m-793 -498 l-92 -531 -26 0 c-55 0 -128 -30 -168 -70 -56 -53 -74 -93 -80
-172 -4 -59 -1 -74 23 -124 l28 -56 -292 -292 -292 -291 47 80 c83 141 225
441 369 775 77 179 186 417 244 530 152 299 200 399 266 552 33 75 61 135 63
134 1 -2 -39 -243 -90 -535z m1358 150 l29 -7 3 -646 2 -646 -42 -24 c-53 -29
-78 -64 -85 -116 -8 -57 4 -106 32 -140 l24 -28 -230 -389 c-126 -214 -231
-391 -234 -393 -2 -2 -27 2 -55 9 -38 10 -63 10 -101 2 l-51 -10 -309 619
-308 619 32 33 c52 52 72 101 72 181 -1 45 -6 81 -17 100 l-16 30 592 427 591
426 21 -19 c12 -11 34 -23 50 -28z m3934 -715 c0 -9 -124 -223 -197 -340 -246
-394 -612 -887 -780 -1048 l-48 -46 -59 6 -60 7 -183 440 c-100 242 -183 442
-183 446 0 3 24 30 53 60 57 59 77 106 77 183 0 25 1 46 3 46 293 57 1330 248
1350 249 15 0 27 -1 27 -3z m-1865 -407 c4 -11 20 -35 36 -53 l29 -34 -478
-674 -477 -674 -35 20 c-25 15 -51 21 -93 20 l-59 -1 -370 416 c-204 229 -386
432 -405 452 l-35 37 26 39 c14 21 28 53 32 71 4 17 7 32 8 32 0 0 397 83 881
184 484 101 892 184 907 185 19 1 29 -5 33 -20z m160 -135 c33 -10 67 -13 100
-9 l50 6 186 -448 185 -447 -28 -24 c-73 -61 -81 -160 -22 -239 l25 -33 -20
-37 c-10 -21 -145 -267 -300 -547 l-280 -509 -73 -1 c-59 -1 -79 -5 -105 -24
l-31 -22 -369 387 -370 387 23 34 c33 48 40 98 22 148 l-15 42 479 676 c264
372 482 676 486 676 4 0 30 -7 57 -16z m-1679 -832 l404 -453 -24 -32 c-13
-18 -28 -44 -31 -59 -7 -27 -9 -27 -64 -23 -31 3 -288 12 -571 20 -283 9 -538
18 -567 21 l-52 5 -15 53 c-9 32 -31 70 -55 97 l-38 44 230 390 230 390 75 0
74 0 404 -453z m2945 -306 c42 -8 97 -23 122 -34 61 -27 67 -53 33 -128 -119
-260 -603 -663 -1265 -1056 l-165 -97 -12 45 c-6 24 -20 55 -31 67 l-20 22
303 550 304 550 39 -3 c61 -5 116 14 149 52 16 18 35 36 43 39 30 12 425 6
500 -7z m-1979 -840 l376 -394 -11 -39 c-14 -54 -2 -107 35 -149 26 -29 29
-37 17 -46 -25 -18 -380 -189 -529 -255 -217 -97 -493 -205 -695 -272 -175
-58 -431 -131 -509 -145 l-38 -7 116 228 c688 1343 750 1462 771 1457 11 -2
34 0 50 5 17 5 33 10 36 10 3 1 174 -176 381 -393z m-7262 13 c72 -16 199 -84
276 -148 153 -127 263 -296 461 -714 358 -751 473 -967 696 -1302 190 -286
345 -475 576 -705 494 -493 1055 -805 1746 -975 241 -59 426 -88 825 -130
1357 -141 2507 -230 3549 -275 129 -5 236 -12 238 -13 2 -2 -29 -7 -69 -10
-40 -4 -149 -13 -243 -21 -164 -15 -546 -34 -1075 -56 -514 -21 -814 -45
-1675 -135 -821 -86 -854 -88 -1215 -89 -341 0 -499 12 -746 55 -606 105
-1192 392 -1755 861 -482 400 -914 895 -1704 1953 -224 299 -380 431 -685 579
-240 116 -443 185 -684 231 -256 50 -429 57 -970 41 l-299 -9 24 44 c33 59
196 221 294 290 44 32 184 118 312 193 l231 136 531 0 c460 0 531 -2 531 -15
0 -24 62 -87 105 -106 101 -46 211 -5 262 98 21 45 25 62 20 104 l-6 50 56 26
c31 14 77 32 102 39 56 15 229 17 291 3z"/>
<path d="M17605 8731 c-185 -45 -347 -161 -450 -320 -186 -291 -146 -670 98
-914 67 -67 127 -109 212 -148 140 -66 86 -63 1035 -69 l865 -5 59 -29 c79
-39 140 -102 178 -182 55 -119 40 -264 -40 -369 -21 -27 -59 -65 -86 -82 -98
-66 -33 -63 -1293 -63 l-1143 0 0 -185 0 -185 1161 0 c1304 0 1230 -4 1395 75
220 106 374 325 406 579 44 349 -187 690 -537 793 -55 16 -137 18 -920 23
l-860 5 -57 27 c-76 35 -138 95 -179 170 -32 60 -34 68 -34 163 0 95 2 103 34
163 41 75 103 135 179 170 l57 27 1068 3 1067 2 0 185 0 185 -1072 -1 c-982 0
-1079 -2 -1143 -18z"/>
<path d="M21454 8734 c-466 -78 -859 -417 -1008 -869 -60 -183 -59 -167 -63
-957 l-4 -728 185 0 185 0 4 713 c3 698 4 714 26 797 42 161 154 349 269 451
110 97 247 172 387 211 79 22 89 23 813 26 l732 3 0 -551 0 -550 -1025 0
-1025 0 0 -185 0 -185 1025 0 1025 0 0 -365 0 -365 185 0 185 0 0 1285 0 1285
-907 -1 c-718 -1 -925 -4 -989 -15z"/>
<path d="M23960 7465 l0 -1285 185 0 185 0 0 1100 0 1100 1145 0 1145 0 0 185
0 185 -1330 0 -1330 0 0 -1285z"/>
<path d="M27944 8734 c-466 -78 -859 -417 -1008 -869 -60 -183 -59 -167 -63
-957 l-4 -728 185 0 185 0 4 713 c3 698 4 714 26 797 42 161 154 349 269 451
110 97 247 172 387 211 79 22 89 23 813 26 l732 3 0 -551 0 -550 -1025 0
-1025 0 0 -185 0 -185 1025 0 1025 0 0 -365 0 -365 185 0 185 0 0 1285 0 1285
-907 -1 c-718 -1 -925 -4 -989 -15z"/>
<path d="M24510 7465 l0 -185 900 0 900 0 0 185 0 185 -900 0 -900 0 0 -185z"/>
</g>
</svg>
